<svg width="333" height="48" viewBox="0 0 333 48" fill="none" xmlns="http://www.w3.org/2000/svg">
<path d="M89.597 9.55068C90.8141 11.8075 90.5863 14.6456 89.0653 16.7744C88.8477 17.0813 88.4237 17.1565 88.1086 16.9471C87.7934 16.7378 87.6998 16.3192 87.8991 16.0011C88.984 14.2625 89.0277 12.0615 87.9794 10.3981C86.9444 8.72456 84.9516 7.65965 82.909 7.67896C82.5633 7.67794 82.2146 7.69928 81.8588 7.74501C82.3671 8.1474 82.8358 8.57113 83.2588 9.01416C85.6278 11.4925 86.9393 14.735 87.0135 18.137C87.0451 19.8502 86.7716 21.5035 86.2063 23.0531C85.5861 24.7043 84.6283 26.1848 83.4357 27.3402C82.0855 28.718 80.412 29.6539 78.7069 29.9669C76.8829 30.2798 74.9989 29.9283 73.3772 28.9822C72.572 28.5097 71.8674 27.8635 71.3377 27.1115C70.8171 26.3738 70.4592 25.4959 70.3047 24.5742L70.2742 24.2399C70.2427 23.9056 70.2122 23.5591 70.2498 23.1791C70.2854 22.7239 70.383 22.2615 70.5385 21.8205C70.8842 20.841 71.5146 20.0098 72.3138 19.4793C73.2166 18.8656 74.3869 18.6573 75.5154 18.9164C76.2048 19.0749 76.8158 19.4011 77.2815 19.8492C77.2255 19.1897 77.0192 18.5557 76.6704 17.9907C75.8154 16.6149 74.2313 15.5926 72.3239 15.1872C71.7586 15.0632 71.1547 14.9829 70.5202 14.9474L69.715 15.6505C66.9617 18.0639 64.1474 20.5321 61.327 22.8976C59.2478 24.7399 57.6282 26.0995 56.0604 27.3107C55.2135 27.9864 54.3279 28.6174 53.2634 29.3541L52.1419 30.0665C51.9691 30.1782 51.7952 30.289 51.6295 30.3733L48.1198 32.2268C47.8595 32.3649 47.5413 32.3182 47.3247 32.114C47.1081 31.9097 47.0421 31.5917 47.161 31.3224C48.2387 28.8796 49.2077 26.45 49.2717 26.07L49.3368 25.82C48.07 26.7538 46.9414 27.5607 45.8606 28.3045C44.8673 28.9883 43.9736 29.5706 43.1266 30.0847L42.782 30.289C42.416 30.5125 42.0449 30.7147 41.6605 30.9261L41.4277 31.0572C41.2538 31.1578 41.079 31.2584 40.8939 31.3417L40.1415 31.676C39.802 31.8274 39.4197 31.6852 39.256 31.359C39.0923 31.0318 39.2082 30.6294 39.5234 30.4394L40.2249 30.0156C40.352 29.9374 40.474 29.8449 40.596 29.7525L40.8472 29.5675C41.1593 29.3531 41.447 29.1021 41.7429 28.8837L42.0987 28.6134C42.9233 27.9712 43.7357 27.3005 44.5389 26.6207C45.9084 25.4451 47.2617 24.2816 48.6098 23.1242L50.0312 21.9018C50.0719 21.408 50.0963 20.9141 50.1024 20.4233C47.2159 22.7564 44.7036 24.7074 42.2553 26.51C41.3271 27.1898 40.3845 27.9061 39.4451 28.6276L37.4391 30.1213C36.4773 30.8235 35.5175 31.5246 34.5292 32.1881C33.5095 32.9096 32.4429 33.5955 31.3794 34.2814L29.5788 35.4042C28.5448 36.0312 27.4782 36.6774 26.3853 37.2627C25.3106 37.8815 24.1719 38.4536 23.0718 39.0074C22.417 39.3062 21.7775 39.6608 21.1349 39.9971C20.0419 40.552 18.9144 41.124 17.7573 41.6189C16.3838 42.2387 14.8882 42.9023 13.3224 43.5221C11.4455 44.2527 9.80352 44.6145 8.28351 44.6327C6.35885 44.6714 4.57959 44.2354 3.14296 43.3738C1.52738 42.4389 0.372381 40.8202 0.0805812 39.044C-0.0841281 38.1031 0.00432795 37.1601 0.339847 36.3238C0.63368 35.5861 1.22134 34.6055 2.33059 34.1351C2.85319 33.881 3.54151 33.8668 4.13426 34.1147C4.67617 34.3413 5.08388 34.762 5.25266 35.268C5.26181 35.2975 5.29231 35.4012 5.30044 35.4306C5.37873 35.7131 5.36145 35.9905 5.26181 36.2486C5.13167 36.7049 4.73006 37.1052 4.20746 37.2637C3.38697 37.5137 2.51462 37.094 2.2279 36.3248C2.09369 36.5463 2.00422 36.7668 1.9483 36.9315C1.75411 37.5066 1.72666 38.1396 1.869 38.7575C1.99609 39.3549 2.27874 39.9484 2.68644 40.4879C3.07687 40.9818 3.57913 41.3964 4.17289 41.7103C5.32383 42.3292 6.74012 42.6056 8.27233 42.509C9.54832 42.4389 10.9026 42.0782 12.5477 41.3781C14.089 40.7095 15.6629 39.9555 16.8626 39.3732C17.9698 38.8631 19.0557 38.2738 20.108 37.7037L21.7114 36.8095C22.8501 36.2029 24.0305 35.5749 25.1469 34.9012C27.8148 33.3425 30.4562 31.6211 33.0163 29.7758C35.4707 28.0321 37.9891 26.0873 40.5249 24.0428C42.7789 22.3469 45.1886 20.4467 47.9103 18.2264C48.4797 17.759 49.045 17.2957 49.6113 16.8313L49.8045 16.6728L49.7842 16.5519C49.6347 15.6739 49.409 14.7828 49.1121 13.8926C47.4843 15.5479 45.9409 17.0091 44.4057 18.3484C42.66 19.9122 40.7922 21.3734 38.8737 22.9566C36.9551 24.5407 34.9502 26.0974 32.871 27.6165C28.9261 30.5196 24.7077 33.1911 20.3744 35.766C20.0562 35.9651 19.6403 35.8737 19.438 35.5587C19.2357 35.2437 19.319 34.8189 19.6281 34.6015C23.7509 31.7797 27.7843 28.9589 31.5451 25.9267C35.5175 22.7797 39.1655 19.4265 42.4953 16.4065C44.119 14.9057 45.7559 13.2575 47.5108 11.3624L49.346 9.38708C49.4649 9.26007 49.7018 9.10053 49.8757 9.08224C50.2 9.04667 50.5335 9.27023 50.6453 9.56592L51.4679 11.3889C51.6478 11.7913 51.7281 12.0077 51.7963 12.1967L51.8949 12.4538C52.1409 13.1143 52.3514 13.7748 52.5252 14.4332L55.2552 12.1632L57.1056 10.6257C57.7502 10.0953 58.4121 9.57202 59.0963 9.0863C60.6428 8.04883 62.0947 7.22779 63.5313 6.57543C65.156 5.82553 66.8407 5.2636 68.5295 4.90897C69.3673 4.73115 70.2427 4.61023 71.2035 4.5391C72.1775 4.49337 73.0885 4.51471 73.9324 4.6021C75.7777 4.7972 77.5519 5.29511 79.2051 6.08159C80.5289 5.6162 81.8303 5.51357 83.0371 5.56844C85.8047 5.68936 88.3871 7.2532 89.597 9.55068ZM65.704 15.3975C65.0147 15.554 64.3396 15.744 63.6899 15.9666C63.2293 16.1251 62.7738 16.2999 62.3275 16.4929L61.6605 16.7937L61.0657 17.1189C59.7023 17.9389 58.3135 19.0282 56.9683 20.0382L56.0777 20.7139C55.0935 21.4659 54.1012 22.2239 53.1038 22.986L53.0804 23.2106C52.9726 24.1068 52.7926 25.0467 52.5202 26.1249C53.0733 25.7377 53.6243 25.3384 54.1673 24.9136C56.1062 23.4453 57.9647 21.8754 59.3739 20.6702L59.3749 20.6692L60.9478 19.3168L62.5379 18.0161C63.6004 17.1371 64.6588 16.2612 65.704 15.3975ZM72.6015 9.81487C73.0865 9.45821 73.5643 9.10866 74.0483 8.75301L74.3604 8.54267C74.6929 8.31811 75.0264 8.09456 75.37 7.88625C74.6726 7.71655 73.969 7.60478 73.2664 7.55092C70.6575 7.34262 67.6805 7.98989 64.7005 9.42061C63.3828 10.0547 62.0682 10.8249 60.7963 11.711C60.1639 12.1449 59.564 12.5899 58.9703 13.096L57.133 14.6314C55.8093 15.7278 54.4855 16.8252 53.1566 17.9257C53.1983 18.3403 53.2288 18.7579 53.2471 19.1775L54.2181 18.3758C55.0477 17.6991 55.8886 17.0315 56.7457 16.375C57.6343 15.7044 58.5127 15.0541 59.4969 14.4464L59.743 14.3021C59.925 14.1904 60.109 14.0959 60.293 14.0054C60.5665 13.8845 60.8309 13.7687 61.0952 13.6518C61.6341 13.4293 62.179 13.2301 62.7321 13.0543C63.8129 12.7078 64.9598 12.4467 66.1361 12.2749C67.3887 12.1032 68.5946 12.0402 69.7282 12.087L69.8543 11.9833C70.7541 11.2547 71.6692 10.5312 72.6015 9.81487ZM80.9041 10.7761L80.903 10.7751C80.1608 10.0791 79.2864 9.47447 78.2982 8.96843C77.8213 9.22043 77.3445 9.49886 76.8738 9.79862C76.5433 10.0069 76.2363 10.2315 75.9292 10.4561L75.5083 10.7619L74.1957 11.8095L73.2044 12.6407C75.7238 13.3774 77.7004 14.9718 78.6368 17.0152C79.1451 18.1197 79.3027 19.3899 79.0882 20.589C78.9001 21.6305 78.4273 22.6182 77.7532 23.3803C77.6983 23.4778 77.6383 23.5723 77.5733 23.6607C76.9846 24.5133 75.9841 25.0447 75.0274 24.997C74.881 24.9898 74.8179 24.9848 74.7549 24.9756C74.7132 24.9685 74.6725 24.9583 74.6339 24.9451C73.8378 24.7714 73.2115 24.1444 73.0763 23.3518C72.8892 22.2676 73.6558 21.2271 74.7844 21.032C75.4402 20.9192 76.0726 21.1153 76.523 21.5126C76.5027 21.4689 76.4793 21.4283 76.4528 21.3887C76.1712 20.9507 75.6669 20.652 75.0609 20.5575C74.7834 20.5148 74.5068 20.5178 74.2455 20.5625C73.8937 20.6235 73.5725 20.7607 73.3213 20.9659C72.8526 21.3236 72.5069 21.853 72.33 22.4729C72.2446 22.7686 72.1989 23.0754 72.1938 23.3864C72.1897 23.5337 72.1989 23.6739 72.2212 23.8152L72.2487 24.0469C72.2568 24.1271 72.2629 24.2074 72.2833 24.2846C72.5313 25.5101 73.3803 26.577 74.5597 27.1847C75.7289 27.7984 77.1778 27.9803 78.4314 27.6877C79.6494 27.3889 80.843 26.6329 81.7937 25.5589C82.6793 24.5468 83.3727 23.3376 83.7936 22.0237C83.9979 21.3754 84.1383 20.7109 84.2074 20.0504C84.2867 19.4102 84.2999 18.7498 84.2501 18.0181C84.0579 15.2878 82.8511 12.6468 80.9041 10.7761ZM329.923 46.6996C328.505 47.5694 326.728 48.0216 324.793 47.9992C323.272 47.9931 321.619 47.6456 319.732 46.9302C318.149 46.3216 316.64 45.6702 315.244 45.0575C314.09 44.5769 312.951 44.0129 311.85 43.4693L309.911 42.4684C308.808 41.9095 307.662 41.3395 306.565 40.7074C305.483 40.1303 304.412 39.482 303.372 38.853L301.563 37.7251C300.5 37.0412 299.438 36.3573 298.408 35.6288C297.429 34.9723 296.466 34.2692 295.501 33.565L293.521 32.0886C292.578 31.3702 291.633 30.6517 290.713 29.9049C288.322 28.0962 285.768 26.0893 282.938 23.7552C282.94 24.245 282.958 24.7389 282.993 25.2337L284.436 26.4978C285.762 27.6562 287.093 28.8197 288.437 29.9953C289.24 30.6731 290.048 31.3539 290.868 32.0449L291.209 32.3243C291.499 32.5621 291.788 32.8019 292.095 33.0163L292.348 33.2033C292.469 33.2947 292.591 33.3882 292.722 33.4675L293.421 33.8912C293.735 34.0812 293.851 34.4836 293.684 34.8098C293.519 35.1359 293.139 35.2853 292.794 35.1258L292.044 34.7925C291.856 34.7082 291.683 34.6096 291.508 34.509L291.273 34.3759C290.89 34.1696 290.526 33.9349 290.163 33.7001L289.832 33.4868C288.984 32.9472 288.092 32.368 287.101 31.6699C286.022 30.9159 284.901 30.101 283.648 29.1601L283.695 29.3379C283.768 29.786 284.713 32.2227 285.772 34.6756C285.889 34.9459 285.821 35.264 285.602 35.4662C285.383 35.6684 285.061 35.7101 284.804 35.5719L281.292 33.6839C281.135 33.6026 280.963 33.4898 280.791 33.377L279.698 32.6718C278.82 32.054 277.826 31.3468 276.888 30.5826C275.34 29.3663 273.734 27.9935 271.678 26.136L269.599 24.2328C268.902 23.613 268.208 22.9931 267.516 22.3753C266.129 21.1214 264.751 19.8777 263.398 18.6532L262.65 17.9765C262.016 18.0019 261.411 18.072 260.847 18.1868C258.93 18.5628 257.327 19.5606 256.439 20.9233C256.081 21.4781 255.861 22.1071 255.79 22.7655C256.265 22.3266 256.884 22.0095 257.577 21.8622C258.709 21.6214 259.877 21.8459 260.775 22.479C261.556 23.0155 262.171 23.8558 262.497 24.8405C262.646 25.2855 262.734 25.7489 262.762 26.2173C262.792 26.5791 262.755 26.9225 262.719 27.2548L262.689 27.5292C262.509 28.5138 262.134 29.3846 261.598 30.1142C261.053 30.857 260.335 31.4921 259.52 31.9504C257.872 32.87 255.974 33.1911 254.157 32.8507C252.443 32.5082 250.779 31.55 249.455 30.1477C248.291 28.9284 247.38 27.3534 246.799 25.7113C246.269 24.1475 246.035 22.4891 246.11 20.778C246.266 17.382 247.662 14.1578 250.081 11.7486C250.512 11.3269 250.987 10.9265 251.5 10.5495C251.151 10.4855 250.811 10.4449 250.474 10.4276C248.433 10.3362 246.415 11.3797 245.343 13.0187C244.251 14.6639 244.237 16.8638 245.278 18.6227C245.468 18.9449 245.364 19.3615 245.044 19.5637C244.725 19.7679 244.304 19.6826 244.092 19.3716C242.624 17.2123 242.474 14.3712 243.748 12.1408C245.012 9.87584 247.629 8.36587 250.402 8.2988C251.592 8.29169 252.865 8.52235 254.178 8.98571C255.845 8.22462 257.622 7.75415 259.46 7.58649C260.304 7.51231 261.213 7.50418 262.162 7.5621C263.135 7.64949 264.002 7.78464 264.835 7.9716C266.505 8.34961 268.171 8.9349 269.779 9.71021C271.193 10.3727 272.622 11.2151 274.122 12.3481C274.796 12.8541 275.45 13.3724 276.083 13.9099L277.905 15.4595L280.593 17.7468C280.776 17.0904 280.992 16.437 281.238 15.7958L281.347 15.5225C281.419 15.3335 281.502 15.1181 281.687 14.7147L282.53 12.8927C282.657 12.6194 282.994 12.3847 283.3 12.4213C283.482 12.4396 283.635 12.5229 283.753 12.6519L285.627 14.7177C287.352 16.625 288.965 18.2854 290.563 19.7913C292.204 21.3246 293.921 22.9606 295.731 24.5763C297.542 26.1899 299.442 27.7934 301.42 29.3765C303.297 30.8783 305.239 32.3538 307.232 33.7936C309.222 35.2457 311.28 36.5992 313.333 38.0624C313.642 38.2768 313.729 38.6995 313.527 39.0166C313.326 39.3326 312.905 39.4291 312.589 39.232C308.255 36.6226 304.027 33.9745 300.089 31.0653C295.933 28.0586 292.12 24.7673 288.638 21.7169C287.119 20.3654 285.596 18.892 284.001 17.2306C283.695 18.1137 283.46 19.0018 283.301 19.8726L283.277 20.0037L283.454 20.153L285.146 21.5705C287.828 23.8264 290.232 25.6828 292.452 27.4845C294.973 29.5472 297.489 31.4758 299.936 33.2205C302.495 35.0669 305.14 36.7902 307.806 38.3449C308.932 39.0359 310.127 39.6303 311.257 40.2878L312.869 41.1667C313.926 41.7266 315.019 42.3068 316.121 42.8007C317.342 43.3788 318.926 44.1186 320.482 44.775C322.135 45.4619 323.498 45.8074 324.772 45.8684C326.315 45.9517 327.729 45.6631 328.87 45.0341C329.464 44.712 329.961 44.2913 330.353 43.7833C330.747 43.2528 331.02 42.6553 331.138 42.067C331.274 41.435 331.238 40.8019 331.037 40.2248C330.98 40.0632 330.887 39.8427 330.751 39.6242C330.475 40.3975 329.608 40.8253 328.787 40.5835C328.265 40.43 327.86 40.0347 327.703 39.5246C327.619 39.3173 327.6 39.041 327.664 38.7757C327.674 38.7422 327.731 38.5624 327.746 38.5298C327.884 38.0878 328.285 37.6641 328.825 37.4314C329.413 37.1784 330.098 37.1794 330.656 37.4466C331.738 37.8927 332.336 38.8682 332.638 39.6039C332.982 40.4361 333.083 41.3791 332.932 42.3302C332.666 44.1105 331.536 45.7424 329.923 46.6996ZM260.018 15.6323L259.036 14.7787L257.352 13.415C257.05 13.1854 256.745 12.9537 256.422 12.7413C255.955 12.4314 255.486 12.1459 255.016 11.8878C254.02 12.3776 253.133 12.969 252.376 13.6518C250.398 15.426 249.133 18.01 248.875 20.7393C248.805 21.4689 248.803 22.1335 248.865 22.7676C248.918 23.4494 249.041 24.1251 249.23 24.7876C249.615 26.1381 250.279 27.3869 251.146 28.398C252.077 29.4862 253.257 30.2595 254.48 30.5786C255.743 30.8977 257.187 30.73 258.366 30.1386C259.564 29.5482 260.436 28.4945 260.696 27.3198C260.729 27.203 260.736 27.1237 260.745 27.0465L260.78 26.8057C260.803 26.6675 260.816 26.5252 260.816 26.383C260.815 26.068 260.776 25.7601 260.696 25.4654C260.531 24.8435 260.193 24.308 259.749 23.9585C259.303 23.5794 258.652 23.4169 257.998 23.5093C257.391 23.5937 256.88 23.8843 256.597 24.306C256.569 24.3476 256.543 24.3913 256.521 24.4371C256.979 24.0499 257.615 23.865 258.267 23.9879C259.393 24.2003 260.138 25.252 259.931 26.3322C259.779 27.1227 259.139 27.7385 258.337 27.899C258.298 27.9122 258.259 27.9214 258.218 27.9275C258.212 27.9285 258.2 27.9295 258.187 27.9305L258.171 27.9326C258.119 27.9356 258.047 27.9397 258.03 27.9407C256.986 27.9742 255.993 27.4326 255.413 26.5588C255.358 26.4785 255.302 26.386 255.248 26.2885C254.588 25.5182 254.136 24.5244 253.969 23.4809C253.781 22.2778 253.967 21.0117 254.5 19.9173C255.48 17.8942 257.487 16.3324 260.018 15.6323ZM267.677 15.4788C268.637 15.6597 269.568 15.9036 270.456 16.2033C271.006 16.3801 271.541 16.6088 272.067 16.8567C272.33 16.9888 272.589 17.1178 272.847 17.2469C273.035 17.3566 273.218 17.4633 273.399 17.569L273.626 17.7052C274.617 18.3301 275.483 18.9865 276.356 19.6602C277.207 20.3248 278.037 20.9995 278.856 21.6813L279.816 22.4901C279.839 22.0695 279.875 21.6528 279.922 21.2403C278.612 20.1307 277.306 19.0241 276.001 17.9196L274.189 16.37C273.603 15.8731 273.02 15.3863 272.409 14.925C271.169 13.9546 269.861 13.2108 268.562 12.5422C265.623 11.0708 262.676 10.3778 260.07 10.5485C259.367 10.5912 258.663 10.6928 257.964 10.8523C258.302 11.0668 258.634 11.2974 258.964 11.5291L259.244 11.7242C259.737 12.0991 260.204 12.4558 260.674 12.8135C261.596 13.5471 262.494 14.2849 263.376 15.0256L263.502 15.1313C264.631 15.1008 265.833 15.1821 267.075 15.3721L267.677 15.4788ZM280.458 29.4354C280.195 28.3512 280.025 27.4143 279.929 26.514L279.907 26.2925C278.922 25.5243 277.937 24.7571 276.961 23.9961L276.08 23.3142C274.753 22.2849 273.376 21.22 272.016 20.3339L271.415 19.9701C271.236 19.8787 271.019 19.7689 270.8 19.6572C270.359 19.4336 269.905 19.269 269.446 19.0983C268.804 18.8666 268.135 18.6664 267.45 18.4998C268.477 19.3848 269.519 20.2801 270.562 21.1783C271.598 22.0949 272.636 23.0145 273.667 23.927C275.057 25.1402 276.892 26.7213 278.812 28.2029C279.352 28.6337 279.9 29.0381 280.458 29.4354ZM283.766 16.0885L283.76 16.0712L283.748 16.0834L283.766 16.0885ZM283.785 16.0631H283.775L283.778 16.0733L283.785 16.0631ZM113.85 12.8917C113.899 12.9029 114.831 13.1854 115.785 13.9333C116.74 14.6801 117.713 15.8934 117.859 17.7631C118.179 21.976 114.491 24.0723 111.284 24.3527C108.505 24.5956 105.853 23.6252 103.452 22.6009C102.235 24.3771 100.762 25.3983 98.5483 25.6849C96.0299 26.0131 93.4535 24.9482 93.1647 22.7604C92.8607 20.4467 94.8677 18.7873 96.6806 18.5516C98.3043 18.3402 99.9392 18.764 101.552 19.3483L101.828 18.7081C103.178 15.3305 104.657 7.04082 105.898 6.08769C107.338 4.9486 108.953 4.52081 109.693 4.45679C110.143 4.41716 110.257 4.59702 110.279 4.84902C110.303 5.10001 109.298 6.16898 108.69 7.90048C108.385 8.81296 106.877 15.4656 105.207 19.3147C105.007 19.8065 104.799 20.2364 104.594 20.6652C106.411 21.4872 108.168 22.1558 109.875 22.0065C112.169 21.8053 114.071 19.9295 113.847 17.2906C113.672 15.2492 112.491 14.0867 111.598 14.0694C111.598 14.0694 110.717 14.5267 110.024 14.5877C109.111 14.6679 108.303 14.2005 108.223 13.3846C108.135 12.4741 108.847 11.9061 109.703 11.8309C110.59 11.7526 111.699 12.0036 111.699 12.0036C111.699 12.0036 114.54 10.2041 114.286 7.09265C114.052 4.23324 111.083 2.94173 108.178 3.19678C105.194 3.46098 102.92 4.46899 101.461 5.90174C100.006 7.38936 99.3566 9.25397 99.5731 11.1491C99.7928 13.0604 101.403 13.4547 101.448 13.8621C101.497 14.3011 101.293 14.486 100.853 14.544C99.1909 14.7594 95.674 13.6589 95.3649 11.1867C94.7712 6.55003 101.144 1.89613 108.071 1.40229C112.998 0.969415 117.688 2.61657 117.986 6.674C118.258 10.3534 114.06 12.8104 113.85 12.8917ZM100.563 21.4811C99.3169 21.0391 98.1812 20.7739 97.1869 20.9029C96.223 21.0279 95.6293 21.8368 95.735 22.6812C95.8408 23.5256 96.7446 23.9808 97.7319 23.8518C98.9987 23.6872 99.7836 22.9179 100.563 21.4811ZM241.551 24.4757C241.506 24.7561 241.152 25.1809 241.152 25.1809C241.152 25.1809 238.964 27.5922 235.367 27.0465C235.089 27.0048 234.756 26.9225 234.42 26.8392C233.355 27.4428 232.181 27.7436 230.952 27.5566C228.987 27.2579 228.095 25.4959 228.095 25.4959C227.133 27.2314 225.562 31.7441 225.239 34.1828C225.172 34.6828 224.996 34.8433 224.57 34.7976C223.416 34.6675 221.872 33.9532 222.085 32.2644C222.228 31.1446 223.338 27.9153 224.704 24.4503C223.761 24.8984 222.532 25.2388 221.019 25.0671C220.647 25.0244 220.248 24.9482 219.824 24.8364C218.738 25.506 217.48 25.8393 216.153 25.6879C214.217 25.4674 212.584 24.1363 212.007 22.4424C210.965 23.4768 209.167 24.8923 207.197 24.6677C204.856 24.368 203.398 22.9179 203.582 20.8521C203.783 18.5912 205.625 16.4208 205.736 15.2593C205.795 14.6314 205.57 14.3306 205.127 14.297C202.911 14.1304 200.073 17.6798 199.607 23.3996C199.575 23.7766 199.431 24.0184 198.997 23.9859C197.759 23.8934 196.001 23.2563 196.092 22.0603C196.111 21.8805 196.13 21.6874 196.152 21.4852C194.717 22.5318 192.278 23.7034 188.638 23.4291C186.535 23.2736 184.776 21.8053 183.885 20.3786C182.873 21.4608 181.255 22.8021 179.412 22.7371C177.058 22.6537 175.528 21.1803 175.589 19.4468C175.686 16.6748 177.753 14.5704 177.795 13.5939C177.821 12.9639 175.928 12.7708 175.928 12.7708C174.615 15.7847 173.364 17.6655 172.677 18.6187C172.672 18.6248 172.663 18.6349 172.658 18.642C172.5 18.8839 170.18 22.4109 165.636 22.2483C163.23 22.1741 161.359 21.0869 160.618 19.3198C159.747 20.1032 158.249 21.0767 156.076 21.0869C155.764 21.0879 155.391 21.0899 155.018 21.0289C153.995 21.8225 152.758 22.2696 151.3 22.2768C149.725 22.2849 147.806 21.1316 146.902 19.4316C146.018 20.5961 144.372 22.2707 142.334 22.3967C139.981 22.5054 138.348 21.161 138.281 19.4275C138.173 16.6555 140.078 14.3905 140.049 13.413C140.029 12.783 138.127 12.7434 138.127 12.7434C137.039 15.8558 135.933 17.8322 135.319 18.8382C135.314 18.8453 135.304 18.8595 135.299 18.8686C135.123 19.1806 133.081 22.8234 130.153 22.9576C128.45 23.0358 127.063 22.1833 126.737 20.4315C126.737 20.4315 126.263 21.1234 125.498 21.8297C124.731 22.5308 123.676 23.2462 122.503 23.3671C120.837 23.5134 119.313 22.2869 119.165 20.3695C118.993 18.1055 119.751 15.6892 121.005 13.7991C121.631 12.8552 122.379 12.0392 123.191 11.4468C124.003 10.8859 124.878 10.5434 125.753 10.5038C128.328 10.3849 129.297 11.8238 129.297 11.8238C130.248 11.7801 131.566 12.0981 131.621 13.2006C131.664 14.1467 130.027 17.819 130.147 19.96C130.175 20.464 130.537 20.8267 131.066 20.8023C132.742 20.7251 134.273 17.9409 134.273 17.9409C134.273 17.9409 134.303 17.8931 134.345 17.8301C134.896 16.941 136.006 15.0978 136.776 12.2079C136.776 12.2079 135.701 11.4996 135.635 9.92462C135.58 8.63311 136.623 7.5428 137.39 7.50825C138.286 7.4676 139.406 8.42582 139.427 9.05684C139.454 9.87584 139.059 10.3992 139.076 10.9032C139.091 11.3442 139.67 11.5393 140.429 11.5037C141.855 11.4387 142.286 11.0078 143.047 10.9733C143.809 10.9296 144.365 11.6205 144.385 12.4436C144.415 13.8327 142.161 16.6362 142.24 19.1847C142.261 19.9092 142.676 20.2689 143.298 20.2404C144.679 20.1622 145.99 18.3911 146.419 17.7224C146.415 17.6605 146.393 17.6036 146.392 17.5416C146.207 10.1654 150.039 0.0244104 155.07 2.31588e-05C156.499 -0.00708979 157.985 1.62584 157.981 2.76086C157.96 5.40891 153.474 10.2549 153.36 10.4134C153.486 10.3179 154.531 9.61978 155.644 9.61368C157.332 9.60555 158.789 11.3645 158.781 12.973C158.773 15.1171 158.005 17.6432 156.511 19.5423C156.604 19.5738 156.698 19.5738 156.823 19.5728C158.465 19.5647 159.767 18.2803 160.28 17.6981L160.27 17.6005C160.285 15.1882 161.297 13.1813 162.664 11.776C163.347 11.0759 164.117 10.516 164.89 10.1482C165.662 9.80167 166.437 9.62994 167.128 9.65433C169.069 9.72241 170.583 11.4173 170.536 13.0878C170.494 14.6009 169.248 17.7113 165.31 17.571C164.967 17.5487 164.124 17.3607 164.124 17.3607C164.099 19.205 165.329 20.3085 166.821 20.3685C169.774 20.4741 171.701 17.6401 171.701 17.6401C171.701 17.6401 171.733 17.5975 171.777 17.5395C172.392 16.7002 173.637 14.9504 174.62 12.1276C174.62 12.1276 173.601 11.334 173.651 9.75899C173.691 8.46646 174.811 7.46455 175.578 7.49199C176.473 7.52349 177.519 8.57011 177.493 9.20113C177.46 10.0201 177.027 10.5099 177.008 11.0139C176.991 11.4549 177.553 11.6957 178.312 11.7232C179.738 11.774 180.2 11.3797 180.961 11.4061C181.722 11.4336 182.228 12.1449 182.187 12.9639C182.114 14.3804 179.661 16.9756 179.552 19.5271C179.519 20.2516 179.908 20.6438 180.53 20.6652C181.567 20.7017 182.642 19.708 183.319 18.9408C183.294 18.7772 183.26 18.6105 183.268 18.4581C183.315 17.5456 184.1 16.942 184.875 16.5671C185.651 16.186 186.414 16.0875 186.414 16.0875C186.414 16.0875 187.141 15.1039 188.716 12.972C190.335 10.8808 191.406 10.202 192.199 10.261C192.866 10.3108 193.694 11.2273 193.672 11.5413C193.64 11.9823 192.827 12.7109 192.768 13.5603C192.598 16.0458 193.749 17.1758 193.611 19.0932C193.496 20.6977 192.725 21.4303 192.725 21.4303C194.702 21.0543 196.079 19.7578 196.577 19.2253C198.075 12.7932 202.978 1.94186 208.14 2.37473C209.588 2.53833 210.869 4.33384 210.753 5.46378C210.476 8.07627 205.998 12.3227 205.759 12.6072C205.895 12.5117 207.099 11.9193 208.457 12.088C209.406 12.1957 210.368 13.4161 210.259 14.482C210.058 16.4269 207.783 18.9286 207.548 21.3765C207.478 22.0989 207.803 22.6121 208.423 22.6822C209.782 22.8377 211.293 21.222 211.818 20.6093C212.411 15.4189 216.72 13.0279 219.989 13.3998C222.614 13.6985 224.413 15.681 224.043 18.5577C223.831 20.216 222.86 22.104 221.457 23.5317C221.609 23.5805 221.759 23.6292 221.945 23.6506C223.579 23.8365 225.033 22.7147 225.612 22.1975C226.719 19.5149 227.878 16.9624 228.739 15.3599C228.946 15.0083 229.29 14.8376 229.698 14.8996C230.137 14.9667 230.867 15.2685 231.627 16.9146C231.627 16.9146 234.136 15.2542 235.993 15.5357C238.227 15.8741 239.443 18.196 239.161 20.0026C238.892 21.7474 237.717 23.993 236.055 25.5904C236.143 25.6361 236.235 25.6503 236.328 25.6635C238.425 25.9816 240.305 24.0977 240.305 24.0977C240.305 24.0977 240.622 23.6993 240.995 23.7563C241.339 23.806 241.605 24.1332 241.551 24.4757ZM164.3 16.0651C166.586 16.1169 168.444 13.2697 168.478 11.9396C168.487 11.5301 168.27 11.3015 167.92 11.2893C166.173 11.2314 164.32 14.4017 164.3 16.0651ZM127.748 13.6C127.695 12.6865 127.163 12.2699 126.53 12.2993C124.684 12.3776 122.734 16.8323 122.924 19.5017C122.987 20.4172 123.269 20.8887 123.921 20.845C125.406 20.778 127.879 16.0245 127.748 13.6ZM150.859 11.2131C152.982 9.15337 156.074 4.66104 156.078 2.73749C156.077 2.35847 155.851 2.10749 155.464 2.10952C154.298 2.1146 152.004 6.57238 150.859 11.2131ZM154.832 13.3063C154.827 12.0768 154.635 11.3838 153.588 11.3889C152.474 11.3939 149.839 13.6142 149.911 18.3118C149.929 19.6043 150.472 20.6113 151.282 20.6072C151.624 20.6052 151.964 20.4457 152.305 20.1601C152.147 20.0037 152.052 19.8147 152.05 19.6257C152.043 18.9316 153.099 18.075 153.6 18.073H153.693C154.373 16.6189 154.837 14.7878 154.832 13.3063ZM189.886 19.4773C189.99 17.8728 189.147 15.7857 189.226 14.4962C189.226 14.4962 186.685 17.8779 186.666 18.2874C186.56 20.1124 186.861 21.9059 187.978 21.9902C188.939 22.0624 189.794 20.8928 189.886 19.4773ZM209.191 5.25344C209.228 4.87646 209.03 4.60007 208.644 4.55637C207.464 4.38871 204.839 8.43699 202.305 13.8642C203.471 13.0502 205.137 11.3574 206.546 9.62994C207.953 7.92385 209.097 6.21572 209.191 5.25344ZM220.822 17.1107C220.992 15.7024 220.557 15.0815 219.832 14.9992C218.411 14.8376 215.856 17.6879 215.387 21.9191C215.247 23.172 215.704 24.1139 216.633 24.2186C216.974 24.2572 217.298 24.1668 217.637 23.9524C217.322 23.6943 217.164 23.423 217.197 23.1405C217.276 22.4515 218.432 21.726 218.931 21.7829C219.055 21.7971 219.176 21.8419 219.266 21.8845C220.075 20.3898 220.655 18.4876 220.822 17.1107ZM235.363 19.1684C235.529 18.0456 235.213 17.5832 234.524 17.4786C232.889 17.2306 229.544 20.8694 229.246 23.0876C229.079 24.306 229.593 25.5965 230.611 25.7509C230.949 25.8027 231.31 25.6981 231.693 25.4369C231.619 25.2977 231.58 25.1321 231.601 24.9766C231.693 24.3202 232.805 23.6282 233.336 23.677C234.383 22.1447 235.215 20.1662 235.363 19.1684Z" fill="white"/>
</svg>
