<svg width="2000" height="2000" viewBox="0 0 2000 2000" fill="none" xmlns="http://www.w3.org/2000/svg">
<path d="M1030.69 1544.54C1030.69 1544.54 869.71 1506.27 750.09 1569.4C622.22 1636.89 583.15 1736.34 579.6 1778.96C579.6 1778.96 608.02 1746.99 647.09 1736.34C688.78 1724.97 725.23 1693.72 725.23 1693.72C725.23 1693.72 689.71 1786.07 721.68 1850C721.68 1850 753.65 1707.93 885.06 1686.61C1016.48 1665.3 1155 1686.61 1155 1686.61C1155 1686.61 1169.21 1565.85 1091.07 1533.88L1030.69 1544.54Z" fill="#A3B2CE"/>
<path d="M458.84 1292.36C458.84 1292.36 515.67 1164.49 870.86 1164.49L877.96 1299.46C877.96 1299.46 707.47 1299.46 636.43 1363.39C565.39 1427.32 547.63 1509.02 547.63 1509.02C547.63 1509.02 444.64 1388.26 458.84 1292.36Z" fill="#A3B2CE"/>
<path d="M1392.98 1395.36C1392.98 1395.36 1318.39 1413.12 1222.49 1345.63C1126.59 1278.14 1119.48 1263.94 1044.9 1253.28C1044.9 1253.28 1201.18 1139.62 1304.19 1175.14C1407.19 1210.66 1421.4 1317.21 1421.4 1317.21L1392.98 1395.36Z" fill="#A3B2CE"/>
<path d="M341.63 887.44C341.63 887.44 423.32 720.5 721.68 660.12C1020.04 599.74 1221.14 706.35 1375.22 692.09C1567.02 674.33 1609.64 542.91 1609.64 542.91C1609.64 542.91 1623.85 606.84 1595.43 660.12C1567.01 713.4 1556.36 724.05 1556.36 724.05C1556.36 724.05 1659.36 720.5 1698.44 681.43C1698.44 681.43 1670.03 777.33 1559.92 823.5C1460.14 865.34 1375.22 873.23 1286.43 869.67C1197.63 866.12 949 784.42 821.14 812.84C693.27 841.25 469.5 908.74 451.75 1061.47C451.75 1061.47 387.82 1047.26 362.95 1008.19C338.08 969.14 327.42 912.31 341.63 887.44Z" fill="#A3B2CE"/>
<path d="M937.72 907.14L701.69 609.45C701.69 609.45 747.61 580.79 741.69 504.68C737.56 451.54 701.69 386.02 640.81 359.16C586.02 334.98 535.66 361.74 535.66 361.74C535.66 361.74 514.86 302.38 487.97 286.65C461.08 270.92 422.78 281.83 422.78 281.83L411.36 308.47C411.36 308.47 444.08 313.04 470.34 317.98C496.6 322.93 505.43 387.32 505.43 387.32C505.43 387.32 483.28 415.31 479.22 456.66C475.16 498.01 492.5 559.74 551.6 608.19C610.71 656.64 674.55 626.2 674.55 626.2L836.9 921.73L1035.64 1688.97C1066.97 1669.82 1066.97 1633.03 1066.97 1633.03L937.72 907.14ZM668.03 576.81C616.62 610.13 567.41 558.21 546.61 523.37C525.81 488.53 528.52 436.44 553.12 413.36C577.73 390.28 621.36 396.36 659.66 434.5C697.96 472.63 707.67 551.12 668.03 576.81Z" fill="white"/>
<path d="M1033.96 1693.11L1033.06 1689.63L834.39 922.71L673.37 629.58C661.19 634.46 603.28 653.99 549.91 610.24C489.56 560.77 472.45 498.33 476.57 456.39C480.3 418.42 498.72 391.86 502.64 386.59C499.97 368.45 489.42 324.28 469.85 320.59C443.96 315.71 411.32 311.14 411 311.1L407.55 310.62L420.84 279.62L422.06 279.27C423.67 278.81 461.78 268.24 489.33 284.35C513.68 298.59 532.63 345.93 537.18 358.08C548.59 352.95 593.85 335.51 641.9 356.73C706.62 385.3 740.38 453.35 744.36 504.49C749.61 572.04 715.25 602.76 705.55 610.02L940.25 906.02L940.37 906.68L1069.65 1632.8V1633.04C1069.65 1634.6 1069.28 1671.54 1037.05 1691.25L1033.96 1693.11ZM675.67 622.71L676.88 624.91L839.39 920.74L839.47 921.06L1037.28 1684.71C1062.85 1666.89 1064.22 1636.12 1064.29 1633.25L935.22 908.27L697.74 608.77L700.27 607.19C700.71 606.91 744.73 578.34 739.02 504.89C735.04 453.7 699.65 388.05 639.72 361.6C586.81 338.25 537.39 363.83 536.89 364.1L534.15 365.55L533.12 362.63C532.91 362.05 512.33 304.01 486.6 288.96C463.63 275.53 431.3 282.46 424.68 284.09L415.15 306.33C424.27 307.65 449.74 311.41 470.8 315.37C498.62 320.61 507.67 384.26 508.04 386.96L508.19 388.08L507.49 388.97C507.27 389.24 485.77 416.89 481.84 456.91C477.86 497.48 494.53 557.98 553.26 606.12C610.31 652.89 672.75 624.09 673.37 623.79L675.67 622.71ZM633.8 590.18C629 590.18 624.15 589.61 619.26 588.47C587.67 581.11 559.83 550.72 544.31 524.73C522.54 488.27 525.8 435.32 551.29 411.41C578.26 386.11 623.59 394.83 661.53 432.6C685.14 456.11 699.14 496.43 695.56 530.64C693.28 552.42 684.02 569.6 669.47 579.03C658.04 586.46 646.09 590.18 633.8 590.18ZM588.91 402.37C575.96 402.37 564.22 406.59 554.94 415.3C531.54 437.25 528.66 488.11 548.89 522C563.85 547.05 590.51 576.31 620.47 583.29C636.41 587 651.92 584.07 666.58 574.58C683.46 563.64 688.78 544.36 690.27 530.11C693.69 497.38 680.33 458.84 657.78 436.39C635.41 414.11 610.5 402.37 588.91 402.37Z" fill="#A3B2CE"/>
<path d="M601.65 625.83C538.1 597.83 492.19 533.39 486.49 464.18L601.65 625.83Z" fill="white"/>
<path d="M601.93 625.04C594.98 620.47 587.33 617.13 580.58 612.15C573.9 607.22 567.21 602.21 560.8 596.92C547.21 585.72 535.32 572.7 525.09 558.37C505.63 531.11 491.4 497.1 487.51 463.72C487.3 461.9 485.32 462.58 485.42 464.21C487.7 500.33 498.66 532.83 519.67 562.54C529.78 576.83 541.99 589.78 555.49 600.9C568.4 611.54 585.13 622.54 601.51 626.7C602.32 626.91 602.46 625.4 601.93 625.04Z" fill="#A3B2CE"/>
<path d="M721.69 575.18C748.22 531.25 733.93 472.21 708.75 431.13C694.71 408.23 676.32 387.44 653.22 373.42C631.3 360.11 601.25 351.59 576.18 359.7C574.6 360.21 574.89 363.98 576.67 363.98C589.51 364.02 602.2 363.87 614.81 367.04C626.6 370 637.9 374.77 648.36 380.94C669.99 393.71 687.47 412.75 701.04 433.69C728.21 475.62 739.1 526.16 720.23 573.54C719.86 574.42 720.85 576.57 721.69 575.18Z" fill="#A3B2CE"/>
<path d="M548.57 376.53C532.89 383.23 519.57 395.34 511.42 410.31C503.26 425.29 500.31 443.04 503.19 459.85L548.57 376.53Z" fill="white"/>
<path d="M548.36 375.49C531.64 381.15 517.88 391.29 509.01 406.83C499.83 422.92 497.27 442.47 502.13 460.33C502.62 462.15 504.37 461.58 504.31 459.82C503.08 426.11 519.11 394.31 548.79 377.56C549.53 377.14 549.4 375.14 548.36 375.49Z" fill="#A3B2CE"/>
<path d="M670.19 421.17C623.24 374.43 569.77 366.97 539.61 395.26C509.45 423.55 506.13 487.39 531.63 530.09C557.13 572.79 617.44 636.42 680.45 595.59C729.04 564.11 717.14 467.91 670.19 421.17ZM668.03 576.81C616.62 610.13 567.41 558.21 546.61 523.37C525.81 488.53 528.52 436.44 553.12 413.36C577.73 390.28 621.36 396.36 659.66 434.5C697.96 472.63 707.67 551.12 668.03 576.81Z" fill="#141414"/>
<path d="M512.83 378.22C512.81 377.86 512.79 377.5 512.77 377.14L512.83 378.22Z" fill="white"/>
<path d="M513.2 378.06C513.15 377.71 513.1 377.37 513.05 377.02C512.97 376.5 512.48 376.73 512.47 377.15C512.46 377.51 512.45 377.87 512.44 378.23C512.42 379.04 513.31 378.86 513.2 378.06Z" fill="#A3B2CE"/>
<path d="M514.41 382.1C510.86 359.83 506.47 332.5 490.26 315.37C483.08 307.79 473.29 304.05 463.25 301.97C452.29 299.7 438.12 296.39 427.15 298.4C425.13 298.77 425.06 302.48 426.84 303.25C445.44 311.27 468.19 304.79 484.92 318.99C493.4 326.2 497.63 337.55 501.61 347.65C506.15 359.17 510.44 370.65 512.84 382.81C513.17 384.44 514.62 383.39 514.41 382.1Z" fill="#A3B2CE"/>
<path d="M527.55 367.57C523.27 353.73 517.71 340.29 510.99 327.46L527.55 367.57Z" fill="white"/>
<path d="M528.81 367.01C526.8 359.21 524.35 351.65 521.39 344.16C518.86 337.75 516.56 330.44 511.72 325.41C510.24 323.87 509.26 327.12 509.51 328.13C511.2 334.97 515.01 341.05 517.87 347.45C520.97 354.4 523.74 361.51 526.44 368.62C527.28 370.85 529.23 368.63 528.81 367.01Z" fill="#A3B2CE"/>
<path d="M693.82 622.89L917.56 919.86L953.75 1044.67L928.55 910.56L697.88 618.33L693.82 622.89Z" fill="white"/>
<path d="M837.14 907.64L716.08 688.66L727.75 703.12L835.11 891.54L837.14 907.64Z" fill="white"/>
<path d="M1044.02 1685.23L904.66 1146.72L910.4 1111.88L1052.14 1676.1L1044.02 1685.23Z" fill="#141414"/>
<path d="M697.88 618.33L868.74 838.72L858.59 850.13L697.88 618.33Z" fill="#141414"/>
<path d="M690.16 635.01L837.14 907.64L845.53 885.52L690.16 635.01Z" fill="#141414"/>
<path d="M919.47 1112.68L941.16 966.44L1060.32 1631.26L1057.08 1649.84L942.18 1038.87L919.47 1112.68Z" fill="#141414"/>
<path d="M1082.78 172.62L1061.63 152.81C1061.63 152.81 1022.17 158.2 1003.86 183.4C985.55 208.6 990.33 271.32 990.33 271.32C990.33 271.32 933.47 267.03 892.99 311.18C848.03 360.23 841.48 434.64 859.03 484.96C884.16 557.04 937.73 564.85 937.73 564.85L841.07 932.26L1014.15 1648.96C1014.15 1648.96 1028.92 1682.65 1065.3 1687.61L939.28 905.13L969.31 569.28C969.31 569.28 1040 571.53 1074.68 503.42C1109.36 435.31 1100.45 371.82 1080.13 335.58C1059.81 299.34 1028.28 282.6 1028.28 282.6C1028.28 282.6 1010.52 220.08 1032.58 205.01C1054.65 189.94 1082.78 172.62 1082.78 172.62ZM1045.2 423.75C1040.14 464.01 1015.91 531.32 955.45 521.45C908.83 513.84 886.21 438.06 905.98 387.75C925.75 337.44 963.27 314.35 995.07 325.61C1026.87 336.87 1050.26 383.49 1045.2 423.75Z" fill="white"/>
<path d="M1068.51 1690.74L1064.95 1690.26C1027.52 1685.15 1012.35 1651.47 1011.72 1650.04L1011.57 1649.6L838.33 932.24L838.5 931.59L934.44 566.92C922.64 564.16 878.83 549.81 856.52 485.85C839.63 437.42 843.23 361.54 891.03 309.39C926.52 270.68 974.92 268.39 987.48 268.58C986.76 255.63 985.12 204.67 1001.7 181.85C1020.46 156.03 1059.61 150.41 1061.27 150.19L1062.53 150.02L1087.15 173.08L1084.18 174.91C1083.9 175.08 1055.84 192.37 1034.09 207.23C1017.63 218.47 1025.71 263.16 1030.55 280.83C1036.26 284.09 1063.79 301.01 1082.45 334.3C1103.06 371.05 1112.46 435.1 1077.05 504.65C1045.74 566.14 984.87 571.5 971.74 571.93L941.95 905.05L1068.51 1690.74ZM1016.68 1648.08C1017.91 1650.69 1031.59 1678.32 1062.08 1684.37L936.6 905.23L936.63 904.9L966.89 566.55L969.4 566.63C970.1 566.64 1038.84 567.96 1072.32 502.22C1106.78 434.54 1097.75 372.44 1077.82 336.89C1058.15 301.81 1027.35 285.12 1027.05 284.96L1026.05 284.43L1025.74 283.34C1024.99 280.71 1007.72 218.79 1031.1 202.82C1048.79 190.73 1070.62 177.06 1078.44 172.19L1060.78 155.65C1054.07 156.81 1021.67 163.44 1006.03 184.97C988.51 209.09 992.95 270.5 993 271.12L993.23 274.21L990.14 273.98C989.59 273.94 934.05 270.34 894.97 312.98C850.7 361.27 844.66 435.61 861.56 484.08C885.82 553.64 937.61 562.14 938.13 562.21L941.07 562.65L940.32 565.52L843.83 932.28L1016.68 1648.08ZM967.12 525.08C963.19 525.08 959.15 524.74 955.02 524.07C937.91 521.28 922.52 509.26 911.7 490.22C894.69 460.32 891.32 417.77 903.5 386.76C923.08 336.93 961.1 310.74 995.96 323.08C1028.9 334.74 1053.14 381.93 1047.85 424.06C1044.07 454.1 1030.78 493.11 1004.8 512.53C993.64 520.89 981.01 525.08 967.12 525.08ZM978.52 325.41C951.24 325.41 923.95 349.3 908.46 388.73C896.82 418.34 900.06 459 916.33 487.6C923.42 500.06 936.03 515.58 955.88 518.82C973.11 521.64 988.5 518.09 1001.61 508.29C1026.25 489.87 1038.92 452.37 1042.56 423.42C1047.48 384.26 1024.42 338.84 994.18 328.12C989.02 326.29 983.77 325.41 978.52 325.41Z" fill="#A3B2CE"/>
<path d="M1000.78 304.37C961.8 290.57 915.82 318.87 891.59 380.53C867.36 442.19 895.09 535.07 952.23 544.4C1026.33 556.5 1056.03 474 1062.23 424.66C1068.43 375.31 1039.76 318.17 1000.78 304.37ZM1045.2 423.75C1040.14 464.01 1015.91 531.32 955.45 521.45C908.83 513.84 886.21 438.06 905.98 387.75C925.75 337.44 963.27 314.35 995.07 325.61C1026.87 336.87 1050.26 383.49 1045.2 423.75Z" fill="#141414"/>
<path d="M1036.25 540.46C1049.57 529.61 1060.35 512.96 1067.95 497.77C1075.67 482.35 1081.49 465.96 1085.08 449.09C1088.8 431.58 1090.24 413.41 1089.22 395.53C1088.21 377.72 1083.51 361.22 1077.4 344.56C1076.65 342.5 1075.18 344.9 1075.59 346.25C1085.41 378.48 1086.13 415.35 1079.2 448.22C1075.7 464.85 1070.16 481.02 1062.55 496.22C1054.83 511.64 1045.14 524.94 1035.49 539.06C1035.17 539.54 1035.5 541.07 1036.25 540.46Z" fill="#A3B2CE"/>
<path d="M906.31 539.14C871.53 504.46 860.12 455.91 866.63 408.04C870.21 381.71 878.7 355.44 894.43 333.78C909.82 312.58 929.67 300.14 953.29 289.93C954.71 289.31 954.66 285.47 952.8 285.65C927.63 288.04 904.28 307.21 889.69 326.94C872.61 350.03 863.52 378.49 859.81 406.73C853.64 453.74 863.86 512.71 905.45 541.57C906.75 542.46 907.04 539.87 906.31 539.14Z" fill="#A3B2CE"/>
<path d="M984.47 291.12C1018.22 294.57 1045.83 318.23 1058.52 349.02C1059.33 350.99 1060.71 348.94 1060.53 347.66C1058.13 330.87 1049.63 315.27 1036.72 304.25C1021.76 291.49 1003.6 287.42 984.43 288.97C983.45 289.05 983.53 291.03 984.47 291.12Z" fill="#A3B2CE"/>
<path d="M1018.19 276.95C1018.04 276.64 1017.89 276.32 1017.74 276.01C1017.51 275.53 1017.1 276 1017.21 276.37C1017.31 276.72 1017.4 277.07 1017.5 277.42C1017.72 278.25 1018.49 277.57 1018.19 276.95Z" fill="#A3B2CE"/>
<path d="M1019.6 281.1C1016.99 269.32 1016.26 257.47 1015.7 245.43C1015.15 233.8 1014.16 220.23 1020.18 209.79C1030.55 191.8 1052.33 188.02 1066.07 174.14C1067.27 172.92 1067.04 169.12 1064.71 169.67C1053.9 172.26 1042.01 181.12 1032.95 187.64C1025.25 193.17 1018.31 199.93 1014.49 208.75C1004.86 231.05 1012.22 259.53 1018.03 281.8C1018.46 283.4 1019.9 282.41 1019.6 281.1Z" fill="#A3B2CE"/>
<path d="M1001.43 273.38C1001.01 265.61 1000.66 257.8 1000.71 250.02C1000.76 243.12 1001.64 236.21 1000.65 229.36C1000.41 227.73 998.35 226.96 997.81 228.87C993.82 242.77 996.6 259.91 998.85 273.98C999.2 276.22 1001.53 275.38 1001.43 273.38Z" fill="#A3B2CE"/>
<path d="M950.33 574.01L864.66 935.82L881.62 1064.66L850.85 931.71L944.78 571.45L950.33 574.01Z" fill="#141414"/>
<path d="M933.4 892.34L956.35 643.17L951.47 661.1L928.79 876.77L933.4 892.34Z" fill="#141414"/>
<path d="M903.63 967.86C893.32 967.86 883.62 961.53 879.83 951.31C874.98 938.2 881.7 923.59 894.8 918.75C907.91 913.89 922.51 920.61 927.36 933.72C932.21 946.83 925.49 961.44 912.39 966.29C909.51 967.36 906.54 967.86 903.63 967.86ZM884.83 949.47C888.66 959.82 900.2 965.13 910.55 961.29C920.9 957.46 926.2 945.92 922.38 935.57C918.55 925.22 907.01 919.92 896.66 923.75C886.3 927.58 881 939.12 884.83 949.47Z" fill="#A3B2CE"/>
<path d="M896.51 955.92C887.77 949.52 887.43 942.31 891.44 935.7C895.45 929.09 905.16 926.79 911.72 930.88C917.02 934.19 919.32 942.74 914.47 946.69C912.79 941.36 906.27 938.14 901.02 940.05C895.77 941.96 892.84 948.62 894.97 953.78L896.51 955.92Z" fill="#141414"/>
<path d="M970.26 1077.32C969.14 1077.7 947.97 1084.69 938.99 1087.65C936.78 1088.38 934.41 1087.2 933.65 1085L931.71 1079.37C930.92 1077.1 932.18 1074.63 934.48 1073.92L944.65 1070.78C944.66 1070.78 944.66 1070.78 944.66 1070.79L946.78 1076.93C946.78 1076.94 946.79 1076.94 946.79 1076.94L968.42 1068.94L970.26 1077.32Z" fill="#141414"/>
<path d="M970.83 1100.47C969.71 1100.86 948.54 1107.84 939.56 1110.8C937.35 1111.53 934.98 1110.34 934.22 1108.15L932.28 1102.52C931.5 1100.25 932.75 1097.78 935.05 1097.07L945.22 1093.93C945.23 1093.93 945.23 1093.93 945.23 1093.93L947.35 1100.08C947.35 1100.08 947.36 1100.09 947.36 1100.08L969 1092.08L970.83 1100.47Z" fill="#141414"/>
<path d="M973.77 1122.8C972.65 1123.19 951.48 1130.17 942.5 1133.13C940.29 1133.86 937.92 1132.68 937.16 1130.48L935.22 1124.85C934.44 1122.58 935.69 1120.11 937.99 1119.4L948.16 1116.26C948.17 1116.26 948.17 1116.26 948.17 1116.27L950.29 1122.41L950.3 1122.42L971.93 1114.42L973.77 1122.8Z" fill="#141414"/>
<path d="M977.32 1143.86C976.2 1144.25 955.03 1151.23 946.05 1154.19C943.84 1154.92 941.47 1153.74 940.71 1151.54L938.77 1145.91C937.98 1143.64 939.24 1141.17 941.54 1140.46L951.71 1137.32C951.72 1137.32 951.72 1137.32 951.73 1137.33L953.85 1143.47C953.85 1143.47 953.86 1143.48 953.86 1143.47L975.5 1135.47L977.32 1143.86Z" fill="#141414"/>
<path d="M980.88 1164.92C979.76 1165.31 958.59 1172.29 949.61 1175.25C947.4 1175.98 945.03 1174.8 944.27 1172.6L942.33 1166.97C941.54 1164.7 942.8 1162.23 945.1 1161.52L955.28 1158.38C955.28 1158.38 955.29 1158.38 955.29 1158.39L957.41 1164.53C957.41 1164.54 957.42 1164.54 957.42 1164.54L979.06 1156.54L980.88 1164.92Z" fill="#141414"/>
<path d="M984.44 1185.98C983.32 1186.37 962.15 1193.35 953.17 1196.31C950.96 1197.04 948.59 1195.85 947.83 1193.66L945.89 1188.03C945.11 1185.76 946.36 1183.29 948.66 1182.58L958.83 1179.44C958.84 1179.44 958.84 1179.44 958.84 1179.45L960.96 1185.6C960.96 1185.6 960.97 1185.61 960.97 1185.6L982.61 1177.6L984.44 1185.98Z" fill="#141414"/>
<path d="M988 1207.04C986.88 1207.43 965.71 1214.41 956.73 1217.37C954.52 1218.1 952.15 1216.91 951.39 1214.72L949.45 1209.09C948.66 1206.82 949.92 1204.35 952.22 1203.64L962.4 1200.5H962.41L964.53 1206.64C964.53 1206.65 964.54 1206.65 964.55 1206.65L986.18 1198.65L988 1207.04Z" fill="#141414"/>
<path d="M991.56 1228.09C990.44 1228.48 969.27 1235.46 960.29 1238.43C958.08 1239.16 955.71 1237.97 954.95 1235.78L953.01 1230.15C952.22 1227.88 953.48 1225.41 955.78 1224.7L965.95 1221.56C965.96 1221.56 965.96 1221.56 965.96 1221.56L968.08 1227.71L968.09 1227.72L989.72 1219.72L991.56 1228.09Z" fill="#141414"/>
<path d="M995.12 1249.15C994 1249.54 972.83 1256.52 963.85 1259.48C961.64 1260.21 959.27 1259.02 958.51 1256.83L956.57 1251.2C955.79 1248.93 957.04 1246.46 959.34 1245.75L969.51 1242.61C969.52 1242.61 969.52 1242.61 969.52 1242.61L971.64 1248.75C971.64 1248.75 971.65 1248.76 971.65 1248.75L993.29 1240.75L995.12 1249.15Z" fill="#141414"/>
<path d="M998.68 1270.21C997.56 1270.6 976.39 1277.58 967.41 1280.54C965.2 1281.27 962.83 1280.09 962.07 1277.89L960.13 1272.26C959.35 1269.99 960.6 1267.52 962.9 1266.81L973.07 1263.67C973.08 1263.67 973.08 1263.67 973.08 1263.68L975.2 1269.82C975.2 1269.83 975.21 1269.83 975.21 1269.83L996.85 1261.83L998.68 1270.21Z" fill="#141414"/>
<path d="M1002.24 1291.27C1001.12 1291.66 979.95 1298.64 970.97 1301.6C968.76 1302.33 966.39 1301.14 965.63 1298.95L963.69 1293.32C962.91 1291.05 964.16 1288.58 966.46 1287.87L976.64 1284.73C976.64 1284.73 976.65 1284.73 976.65 1284.74L978.77 1290.88L978.78 1290.89L1000.41 1282.89L1002.24 1291.27Z" fill="#141414"/>
<path d="M1005.79 1312.33C1004.67 1312.72 983.5 1319.7 974.52 1322.66C972.31 1323.39 969.94 1322.2 969.18 1320.01L967.24 1314.38C966.45 1312.11 967.71 1309.64 970.01 1308.93L980.19 1305.79C980.2 1305.79 980.2 1305.79 980.2 1305.8L982.32 1311.94C982.32 1311.95 982.33 1311.95 982.34 1311.95L1003.97 1303.95L1005.79 1312.33Z" fill="#141414"/>
<path d="M1009.35 1333.39C1008.23 1333.78 987.06 1340.76 978.08 1343.72C975.87 1344.45 973.5 1343.27 972.74 1341.07L970.8 1335.44C970.01 1333.17 971.27 1330.7 973.57 1329.99L983.75 1326.85C983.76 1326.85 983.76 1326.85 983.76 1326.85L985.88 1333C985.88 1333.01 985.89 1333.01 985.89 1333.01L1007.53 1325.01L1009.35 1333.39Z" fill="#141414"/>
<path d="M1012.91 1354.45C1011.79 1354.83 990.62 1361.82 981.64 1364.78C979.43 1365.51 977.06 1364.33 976.3 1362.13L974.36 1356.5C973.58 1354.23 974.83 1351.76 977.13 1351.05L987.31 1347.91C987.32 1347.91 987.32 1347.91 987.32 1347.91L989.44 1354.06L989.45 1354.07L1011.09 1346.07L1012.91 1354.45Z" fill="#141414"/>
<path d="M1016.47 1375.5C1015.35 1375.89 994.18 1382.87 985.2 1385.83C982.99 1386.56 980.62 1385.37 979.86 1383.18L977.92 1377.55C977.14 1375.28 978.39 1372.81 980.69 1372.1L990.87 1368.96C990.88 1368.96 990.88 1368.96 990.88 1368.97L993 1375.12L993.01 1375.13L1014.64 1367.13L1016.47 1375.5Z" fill="#141414"/>
<path d="M1020.03 1396.56C1018.91 1396.95 997.74 1403.93 988.76 1406.89C986.55 1407.62 984.18 1406.43 983.42 1404.24L981.48 1398.61C980.69 1396.34 981.95 1393.87 984.25 1393.16L994.43 1390.02C994.44 1390.02 994.44 1390.02 994.45 1390.02L996.57 1396.17C996.57 1396.18 996.58 1396.18 996.59 1396.18L1018.22 1388.18L1020.03 1396.56Z" fill="#141414"/>
<path d="M1023.59 1417.62C1022.47 1418.01 1001.3 1424.99 992.32 1427.95C990.11 1428.68 987.74 1427.49 986.98 1425.3L985.04 1419.67C984.25 1417.4 985.51 1414.93 987.81 1414.22L997.99 1411.08C998 1411.08 998 1411.08 998 1411.09L1000.12 1417.23C1000.12 1417.24 1000.13 1417.24 1000.13 1417.24L1021.77 1409.23L1023.59 1417.62Z" fill="#141414"/>
<path d="M1027.15 1438.68C1026.03 1439.07 1004.86 1446.05 995.88 1449.02C993.67 1449.75 991.3 1448.56 990.54 1446.37L988.6 1440.74C987.82 1438.47 989.07 1436 991.37 1435.29L1001.55 1432.15C1001.55 1432.15 1001.56 1432.15 1001.56 1432.16L1003.68 1438.3C1003.68 1438.31 1003.69 1438.31 1003.69 1438.31L1025.33 1430.3L1027.15 1438.68Z" fill="#141414"/>
<path d="M1030.71 1459.74C1029.59 1460.13 1008.42 1467.11 999.44 1470.07C997.23 1470.8 994.86 1469.62 994.1 1467.42L992.16 1461.79C991.38 1459.52 992.63 1457.05 994.93 1456.34L1005.1 1453.2C1005.11 1453.2 1005.11 1453.2 1005.11 1453.21L1007.23 1459.35C1007.23 1459.35 1007.24 1459.36 1007.24 1459.35L1028.87 1451.35L1030.71 1459.74Z" fill="#141414"/>
<path d="M1034.27 1480.8C1033.15 1481.19 1011.98 1488.17 1003 1491.13C1000.79 1491.86 998.42 1490.68 997.66 1488.48L995.72 1482.85C994.93 1480.58 996.19 1478.11 998.49 1477.4L1008.67 1474.26H1008.68L1010.8 1480.41L1010.81 1480.42L1032.44 1472.42L1034.27 1480.8Z" fill="#141414"/>
<path d="M1037.82 1501.86C1036.7 1502.25 1015.53 1509.23 1006.55 1512.19C1004.34 1512.92 1001.97 1511.73 1001.21 1509.54L999.27 1503.91C998.49 1501.64 999.74 1499.17 1002.04 1498.46L1012.22 1495.32C1012.23 1495.32 1012.23 1495.32 1012.23 1495.33L1014.35 1501.47C1014.35 1501.48 1014.36 1501.48 1014.36 1501.48L1035.99 1493.48L1037.82 1501.86Z" fill="#141414"/>
<path d="M1041.38 1522.92C1040.26 1523.31 1019.09 1530.29 1010.11 1533.25C1007.9 1533.98 1005.53 1532.8 1004.77 1530.6L1002.83 1524.97C1002.04 1522.7 1003.3 1520.23 1005.6 1519.52L1015.77 1516.38C1015.78 1516.38 1015.78 1516.38 1015.78 1516.39L1017.9 1522.53C1017.9 1522.53 1017.91 1522.54 1017.91 1522.53L1039.54 1514.53L1041.38 1522.92Z" fill="#141414"/>
<path d="M1044.94 1543.98C1043.82 1544.37 1022.65 1551.35 1013.67 1554.31C1011.46 1555.04 1009.09 1553.86 1008.33 1551.66L1006.39 1546.03C1005.6 1543.76 1006.86 1541.29 1009.16 1540.58L1019.34 1537.44C1019.34 1537.44 1019.35 1537.44 1019.35 1537.45L1021.47 1543.59C1021.47 1543.59 1021.48 1543.6 1021.48 1543.59L1043.12 1535.59L1044.94 1543.98Z" fill="#141414"/>
<path d="M1048.5 1565.03C1047.38 1565.42 1026.21 1572.4 1017.23 1575.36C1015.02 1576.09 1012.65 1574.91 1011.89 1572.71L1009.95 1567.08C1009.17 1564.81 1010.42 1562.34 1012.72 1561.63L1022.89 1558.49C1022.9 1558.49 1022.9 1558.49 1022.9 1558.5L1025.02 1564.64C1025.02 1564.65 1025.03 1564.65 1025.03 1564.65L1046.66 1556.65L1048.5 1565.03Z" fill="#141414"/>
<path d="M1048.5 1565.03C1047.38 1565.42 1026.21 1572.4 1017.23 1575.36C1015.02 1576.09 1012.65 1574.91 1011.89 1572.71L1009.95 1567.08C1009.17 1564.81 1010.42 1562.34 1012.72 1561.63L1022.89 1558.49C1022.9 1558.49 1022.9 1558.49 1022.9 1558.5L1025.02 1564.64C1025.02 1564.65 1025.03 1564.65 1025.03 1564.65L1046.66 1556.65L1048.5 1565.03Z" fill="#141414"/>
<path d="M1052.06 1586.09C1050.94 1586.48 1029.77 1593.46 1020.79 1596.42C1018.58 1597.15 1016.21 1595.96 1015.45 1593.77L1013.51 1588.14C1012.72 1585.87 1013.98 1583.4 1016.27 1582.69L1026.44 1579.55C1026.45 1579.55 1026.45 1579.55 1026.45 1579.56L1028.57 1585.71C1028.57 1585.71 1028.58 1585.72 1028.59 1585.71L1050.22 1577.71L1052.06 1586.09Z" fill="#141414"/>
<path d="M1055.62 1607.15C1054.5 1607.54 1033.33 1614.52 1024.35 1617.48C1022.14 1618.21 1019.77 1617.02 1019.01 1614.83L1017.07 1609.2C1016.29 1606.93 1017.54 1604.46 1019.84 1603.75L1030.01 1600.61C1030.02 1600.61 1030.02 1600.61 1030.02 1600.61L1032.14 1606.76C1032.14 1606.77 1032.15 1606.77 1032.15 1606.77L1053.79 1598.77L1055.62 1607.15Z" fill="#141414"/>
<path d="M1025.56 1664.32L892.05 1091.9L911.96 1220.41L1014.16 1648.96L1025.56 1664.32Z" fill="#141414"/>
<path d="M829.83 923.76L846.89 839.15L863.54 846.8L841.08 932.26L829.83 923.76Z" fill="#141414"/>
<path d="M1050.47 1632.08L1055.86 1671.53L1041.99 1665.15L1050.47 1632.08Z" fill="#141414"/>
<path d="M1277.72 411.88C1281.65 396.13 1270.26 380.07 1253.63 378.26C1253.42 378.24 1253.21 378.22 1253 378.2C1231.79 376.2 1165.58 381.1 1147.95 402.45C1130.32 423.8 933.71 1230.35 933.71 1230.35C933.71 1230.35 992.12 1270.37 969.26 1325.74C946.4 1381.11 900.89 1377.95 908.83 1398.06C915.57 1415.14 934.42 1419.53 975.12 1380.94C1013.73 1344.34 1008.48 1300.7 1002.59 1268.98C997.96 1244.06 984.07 1218.34 984.07 1218.34C984.07 1218.34 1044.03 985.14 1059.17 962.48C1074.31 939.82 1121.71 946.44 1138.07 927.5C1152.74 910.51 1256.31 497.69 1277.72 411.88Z" fill="white"/>
<path d="M925.58 1414.19C923.91 1414.19 922.32 1414.02 920.79 1413.69C913.9 1412.16 908.62 1407.21 905.52 1399.36C900.96 1387.79 910.24 1381.9 920.98 1375.07C934.75 1366.33 953.6 1354.36 965.98 1324.38C987.45 1272.36 933.99 1234.85 931.7 1233.28L929.68 1231.89L930.26 1229.51C950.4 1146.88 1127.57 421.55 1145.21 400.19C1164.34 377.02 1233.87 372.83 1253.33 374.66L1254.01 374.73C1263.07 375.72 1271.26 380.58 1276.48 388.07C1281.55 395.35 1283.26 404.34 1281.16 412.74C1251.97 529.7 1155.58 912.64 1140.76 929.81C1132.28 939.62 1116.72 943.09 1101.67 946.44C1085.77 949.98 1069.34 953.64 1062.12 964.44C1050.47 981.87 1008.66 1137.04 987.85 1217.89C990.72 1223.42 1001.93 1245.97 1006.08 1268.33C1013.3 1307.26 1014.85 1348.16 977.56 1383.51C956.06 1403.89 938.61 1414.19 925.58 1414.19ZM937.72 1228.89C948.03 1236.83 993.73 1275.76 972.55 1327.08C959.31 1359.15 938.54 1372.33 924.8 1381.06C912.78 1388.69 909.97 1391.23 912.14 1396.74C914.36 1402.37 917.79 1405.74 922.34 1406.74C929.88 1408.41 944.74 1404.84 972.69 1378.34C1007.52 1345.32 1005.97 1306.57 999.11 1269.61C994.64 1245.55 981.09 1220.26 980.96 1220.01L980.3 1218.79L980.65 1217.44C983.1 1207.89 1040.93 983.38 1056.23 960.48C1065.03 947.31 1082.88 943.34 1100.14 939.49C1114.7 936.25 1128.46 933.19 1135.4 925.15C1146.38 912.44 1217.08 640.24 1274.28 411.01C1275.88 404.6 1274.56 397.72 1270.66 392.12C1266.61 386.31 1260.26 382.54 1253.25 381.78L1252.68 381.72C1230.32 379.6 1166.91 385.05 1150.68 404.69C1136.47 422.57 992.7 1003.41 937.72 1228.89Z" fill="#A3B2CE"/>
<path d="M1120.7 912.18C1120.7 912.18 1073.34 899.45 1064.69 885.69C1056.05 871.93 1176.45 432.81 1190.28 418.66C1204.11 404.51 1258.98 415.07 1258.98 415.07C1258.98 415.07 1204.03 416.72 1197.66 434.81C1197.66 434.81 1071.96 866.92 1080.75 879.74C1089.55 892.55 1120.7 912.18 1120.7 912.18Z" fill="#141414"/>
<path d="M1134.93 911.05C1134.93 911.05 1110.99 921.58 1087.1 926.67C1063.2 931.77 1047.61 939.89 1038.55 965.08C1029.5 990.27 981.23 1148.71 981.23 1148.71L994.61 1139.42C994.61 1139.42 1038 963.43 1060.31 947.95C1082.62 932.48 1112.59 931.95 1124.28 925.86C1135.98 919.78 1134.93 911.05 1134.93 911.05Z" fill="#141414"/>
<path d="M933.71 1230.34C953.36 1277.49 1059.93 1214.2 1101.35 1183.95C1142.77 1153.7 1224.45 1077.27 1320.27 943.94C1416.09 810.61 1527.63 569.1 1550.4 525.95C1573.17 482.8 1588.57 423.49 1528.85 391.98C1469.13 360.46 1438.98 387.46 1422.53 418.63C1406.08 449.79 1328.32 681.54 1244.9 827.55C1165.28 966.92 1093.46 1060.26 1033.11 1120.36C979.44 1173.81 914.06 1183.19 933.71 1230.34Z" fill="#A3B2CE"/>
<path d="M952.16 1230.64C973 1241.64 1041.4 1209.29 1092.21 1172.17C1138.59 1138.29 1219.63 1058.28 1308 935.31C1385.26 827.79 1473.3 648.39 1515.61 562.17C1525.58 541.86 1532.78 527.18 1537.12 518.95C1549.83 494.87 1556.24 472.62 1555.67 454.61C1554.97 432.63 1543.99 416.32 1522.09 404.77C1481.36 383.28 1454.75 389.71 1435.79 425.64C1431.44 433.89 1421.23 460.5 1408.31 494.2C1374.47 582.43 1317.84 730.12 1257.93 834.97C1185.29 962.12 1113.27 1061.63 1043.87 1130.75C1023.69 1150.85 1001.73 1165.17 984.09 1176.67C948.43 1199.93 940.18 1207.73 947.46 1225.2C948.88 1228.57 950.72 1229.88 952.16 1230.64Z" fill="#141414"/>
<path d="M962.83 1236.28C957.9 1236.28 953.73 1235.49 950.5 1233.79C948.68 1232.83 946.06 1231.04 944.19 1226.56C935.69 1206.18 946.5 1196.95 982.16 1173.69C999.68 1162.26 1021.46 1148.06 1041.38 1128.22C1110.56 1059.32 1182.38 960.06 1254.87 833.19C1314.63 728.59 1371.2 581.09 1404.99 492.95C1417.97 459.1 1428.21 432.39 1432.66 423.96C1452.49 386.38 1481.44 379.28 1523.76 401.61C1546.88 413.81 1558.48 431.11 1559.23 454.48C1559.82 473.1 1553.27 495.97 1540.27 520.59C1535.95 528.77 1528.77 543.42 1518.82 563.69C1476.44 650.05 1388.32 829.63 1310.89 937.37C1222.28 1060.68 1140.91 1140.99 1094.31 1175.03C1050.15 1207.29 992.63 1236.28 962.83 1236.28ZM953.81 1227.5C971.32 1236.73 1035.02 1209.54 1090.11 1169.3C1136.27 1135.59 1216.99 1055.87 1305.11 933.24C1382.19 825.97 1470.14 646.76 1512.4 560.64C1522.41 540.25 1529.61 525.56 1533.98 517.29C1546.4 493.75 1552.67 472.12 1552.12 454.72C1551.46 434.12 1541.1 418.81 1520.44 407.9C1481.37 387.28 1456.99 393.08 1438.94 427.28C1434.69 435.34 1424.51 461.86 1411.64 495.45C1377.75 583.82 1321.06 731.64 1261.03 836.71C1188.23 964.13 1116.02 1063.9 1046.39 1133.25C1025.96 1153.6 1003.83 1168.03 986.06 1179.62C949.74 1203.31 944.79 1209.51 950.75 1223.82C951.85 1226.46 953.13 1227.13 953.81 1227.5Z" fill="white"/>
<path d="M980.61 1292.58C980.31 1276.26 974.72 1248.93 960.21 1238.99C957.83 1237.36 956.91 1241.51 957.66 1243.09C961.14 1250.39 966.45 1256.85 970.5 1263.89C975.75 1273.01 977.89 1282.53 979.5 1292.84C979.65 1293.83 980.63 1293.44 980.61 1292.58Z" fill="#A3B2CE"/>
<path d="M987.53 1239.91C987.53 1239.91 1011.21 1307.58 990.67 1347.83C973.13 1382.21 939.77 1405.43 923.96 1404.58C908.15 1403.73 912.43 1386.24 912.43 1386.24C912.43 1386.24 911.13 1395.92 922.62 1397.75C933.71 1399.51 966.07 1374.36 981.51 1347.77C994.24 1325.87 992.43 1293.59 988.39 1275.79C984.35 1258 977.53 1241.45 977.53 1241.45L987.53 1239.91Z" fill="#141414"/>
<path d="M1513.21 459.5C1517.87 450.67 1514.22 439.6 1505.06 434.76C1495.9 429.93 1484.69 433.16 1480.04 441.99C1475.38 450.82 1479.03 461.89 1488.19 466.73C1497.34 471.57 1508.55 468.33 1513.21 459.5Z" fill="white"/>
<path d="M1497.15 472.52C1493.57 472.52 1489.93 471.67 1486.53 469.87C1475.65 464.13 1471.33 450.88 1476.89 440.33C1479.6 435.2 1484.21 431.47 1489.87 429.84C1495.49 428.22 1501.47 428.85 1506.71 431.62C1517.59 437.36 1521.91 450.61 1516.35 461.16C1512.52 468.41 1505.01 472.52 1497.15 472.52ZM1496.07 436.07C1494.65 436.07 1493.23 436.27 1491.84 436.67C1488.05 437.77 1484.97 440.25 1483.17 443.65C1479.43 450.73 1482.43 459.68 1489.84 463.59C1497.25 467.5 1506.33 464.92 1510.07 457.84C1513.81 450.76 1510.81 441.81 1503.4 437.9C1501.09 436.69 1498.58 436.07 1496.07 436.07Z" fill="#A3B2CE"/>
<path d="M993 1212.14C997.04 1204.49 993.87 1194.89 985.93 1190.7C977.99 1186.51 968.28 1189.31 964.24 1196.96C960.2 1204.61 963.37 1214.21 971.31 1218.4C979.25 1222.6 988.96 1219.79 993 1212.14Z" fill="white"/>
<path d="M979.09 1223.91C975.85 1223.91 972.62 1223.12 969.65 1221.55C964.99 1219.09 961.53 1215.03 959.91 1210.1C958.27 1205.13 958.69 1199.87 961.1 1195.31C966.04 1185.94 977.93 1182.46 987.59 1187.56C997.25 1192.66 1001.08 1204.43 996.14 1213.8C993.73 1218.36 989.64 1221.67 984.6 1223.13C982.79 1223.65 980.94 1223.91 979.09 1223.91ZM978.15 1192.31C973.72 1192.31 969.52 1194.59 967.39 1198.62C965.89 1201.46 965.63 1204.74 966.66 1207.87C967.7 1211.04 969.95 1213.67 972.97 1215.26C975.99 1216.85 979.42 1217.22 982.63 1216.3C985.79 1215.39 988.36 1213.32 989.85 1210.48C992.97 1204.57 990.46 1197.11 984.27 1193.84C982.31 1192.81 980.2 1192.31 978.15 1192.31Z" fill="#A3B2CE"/>
<path d="M1507.11 447.69C1510.02 453.91 1504.57 461.98 1497.67 461.69C1490.76 461.4 1485.53 452.88 1488.59 446.92C1489.47 445.19 1491.05 443.67 1493.04 443.47C1491.62 446.29 1491.87 449.97 1493.93 452.49C1496 455 1499.9 456.01 1502.72 454.5C1505.53 452.99 1506.62 448.96 1504.72 446.32L1507.11 447.69Z" fill="#141414"/>
<path d="M986.36 1202.2C988.46 1205.26 987.1 1209.8 983.9 1211.56C980.7 1213.32 976.32 1212.43 973.57 1209.89C971.68 1208.15 970.45 1205.58 970.8 1203.11C971.15 1200.64 973.32 1198.45 975.88 1198.47C974.6 1200.53 974.41 1204.54 976.38 1206.1C978.35 1207.66 984.19 1210.05 986.18 1202.59L986.36 1202.2Z" fill="#141414"/>
<path d="M1181.33 779.83L1180.21 784.21L1116.3 705.8C1116.68 704.36 1117.07 702.91 1117.45 701.46L1181.33 779.83Z" fill="#141414"/>
<path d="M1174.32 807.07L1173.2 811.44L1109.14 732.84C1109.52 731.39 1109.9 729.95 1110.29 728.49L1174.32 807.07Z" fill="#141414"/>
<path d="M1177.82 793.45L1176.7 797.83L1112.71 719.32C1113.09 717.88 1113.48 716.43 1113.86 714.98L1177.82 793.45Z" fill="#141414"/>
<path d="M1184.83 766.2L1183.71 770.57L1119.89 692.27C1120.27 690.83 1120.66 689.38 1121.04 687.93L1184.83 766.2Z" fill="#141414"/>
<path d="M1198.83 711.71L1197.71 716.09L1134.29 638.27C1134.68 636.83 1135.06 635.38 1135.45 633.94L1198.83 711.71Z" fill="#141414"/>
<path d="M1195.33 725.33L1194.2 729.71L1130.67 651.76C1131.06 650.31 1131.44 648.87 1131.83 647.42L1195.33 725.33Z" fill="#141414"/>
<path d="M1188.33 752.58L1187.21 756.95L1123.48 678.76C1123.86 677.31 1124.25 675.87 1124.63 674.42L1188.33 752.58Z" fill="#141414"/>
<path d="M1170.82 820.69L1169.69 825.06L1105.56 746.37C1105.94 744.93 1106.32 743.48 1106.71 742.02L1170.82 820.69Z" fill="#141414"/>
<path d="M1191.83 738.96L1190.71 743.33L1127.08 665.26C1127.46 663.82 1127.85 662.37 1128.24 660.93L1191.83 738.96Z" fill="#141414"/>
<path d="M1129.39 913.21L1122.94 911.05L1077.12 854.83C1077.49 853.42 1077.87 851.97 1078.26 850.47L1129.39 913.21Z" fill="#141414"/>
<path d="M1146.31 916.05L1145.64 918.65L1143.03 917.77L1080.66 841.25C1081.03 839.83 1081.41 838.37 1081.8 836.89L1146.31 916.05Z" fill="#141414"/>
<path d="M1202.33 698.09L1201.21 702.46L1137.9 624.79C1138.29 623.35 1138.68 621.9 1139.06 620.46L1202.33 698.09Z" fill="#141414"/>
<path d="M1109.31 906.49L1102.86 904.33L1073.58 868.41C1073.94 867.04 1074.31 865.59 1074.72 864.05L1109.31 906.49Z" fill="#141414"/>
<path d="M1089.23 899.77L1089.17 899.75L1072.72 885.26L1070.06 882C1070.27 881.18 1070.65 879.71 1071.19 877.64L1089.23 899.77Z" fill="#141414"/>
<path d="M1149.81 902.43L1148.69 906.81L1084.21 827.7C1084.58 826.27 1084.96 824.82 1085.35 823.34L1149.81 902.43Z" fill="#141414"/>
<path d="M1160.32 861.56L1159.2 865.94L1094.88 787.02C1095.26 785.58 1095.64 784.13 1096.02 782.67L1160.32 861.56Z" fill="#141414"/>
<path d="M1163.82 847.94L1162.69 852.31L1098.42 773.46C1098.8 772.02 1099.18 770.57 1099.57 769.11L1163.82 847.94Z" fill="#141414"/>
<path d="M1167.32 834.32L1166.2 838.7L1102 759.93C1102.38 758.49 1102.76 757.04 1103.15 755.58L1167.32 834.32Z" fill="#141414"/>
<path d="M1156.81 875.18L1155.69 879.56L1091.31 800.57C1091.69 799.13 1092.07 797.68 1092.45 796.22L1156.81 875.18Z" fill="#141414"/>
<path d="M1153.31 888.8L1152.19 893.18L1087.76 814.13C1088.14 812.7 1088.51 811.24 1088.9 809.78L1153.31 888.8Z" fill="#141414"/>
<path d="M1251.36 507.37L1250.23 511.75L1190.19 438.08C1190.65 436.63 1191.09 435.25 1191.51 433.95L1251.36 507.37Z" fill="#141414"/>
<path d="M1254.86 493.75L1253.74 498.13L1194.44 425.37C1195.01 423.81 1195.51 422.51 1195.95 421.47L1254.86 493.75Z" fill="#141414"/>
<path d="M1240.85 548.24L1239.73 552.61L1178.46 477.44C1178.87 476 1179.28 474.58 1179.69 473.19L1240.85 548.24Z" fill="#141414"/>
<path d="M1247.85 521L1246.73 525.37L1186.19 451.09C1186.62 449.65 1187.05 448.25 1187.46 446.89L1247.85 521Z" fill="#141414"/>
<path d="M1244.35 534.62L1243.23 539L1182.29 464.23C1182.71 462.79 1183.13 461.38 1183.53 460L1244.35 534.62Z" fill="#141414"/>
<path d="M1205.24 414.95L1258.36 480.13L1257.24 484.51L1201.51 416.13C1202.61 415.68 1203.87 415.29 1205.24 414.95Z" fill="#141414"/>
<path d="M1261.86 466.51L1260.74 470.88L1214 413.54C1215.42 413.4 1216.89 413.29 1218.41 413.2L1261.86 466.51Z" fill="#141414"/>
<path d="M1272.36 425.64L1271.24 430.01L1258.8 414.75C1260.65 414.95 1262.39 415.15 1263.99 415.36L1272.36 425.64Z" fill="#141414"/>
<path d="M1268.86 439.26L1267.74 443.64L1243.13 413.44C1244.81 413.54 1246.47 413.65 1248.09 413.77L1268.86 439.26Z" fill="#141414"/>
<path d="M1265.36 452.88L1264.24 457.25L1228.12 412.94C1229.69 412.94 1231.27 412.97 1232.86 413L1265.36 452.88Z" fill="#141414"/>
<path d="M1216.34 643.6L1215.22 647.97L1152.46 570.96C1152.85 569.52 1153.25 568.08 1153.64 566.65L1216.34 643.6Z" fill="#141414"/>
<path d="M1219.84 629.98L1218.71 634.36L1156.11 557.55C1156.5 556.11 1156.9 554.67 1157.29 553.24L1219.84 629.98Z" fill="#141414"/>
<path d="M1237.35 561.86L1236.23 566.24L1174.68 490.72C1175.09 489.28 1175.49 487.86 1175.89 486.45L1237.35 561.86Z" fill="#141414"/>
<path d="M1205.84 684.47L1204.72 688.85L1141.54 611.33C1141.93 609.89 1142.32 608.44 1142.7 607L1205.84 684.47Z" fill="#141414"/>
<path d="M1209.34 670.84L1208.22 675.21L1145.17 597.85C1145.56 596.41 1145.95 594.97 1146.34 593.53L1209.34 670.84Z" fill="#141414"/>
<path d="M1212.84 657.22L1211.72 661.6L1148.81 584.41C1149.2 582.97 1149.59 581.53 1149.98 580.09L1212.84 657.22Z" fill="#141414"/>
<path d="M1223.34 616.36L1222.22 620.74L1159.79 544.14C1160.19 542.7 1160.58 541.26 1160.97 539.84L1223.34 616.36Z" fill="#141414"/>
<path d="M1230.35 589.11L1229.23 593.48L1167.19 517.37C1167.59 515.93 1167.99 514.5 1168.38 513.08L1230.35 589.11Z" fill="#141414"/>
<path d="M1233.85 575.49L1232.73 579.86L1170.92 504.03C1171.32 502.59 1171.72 501.16 1172.12 499.75L1233.85 575.49Z" fill="#141414"/>
<path d="M1226.85 602.73L1225.72 607.11L1163.48 530.75C1163.88 529.31 1164.27 527.88 1164.67 526.45L1226.85 602.73Z" fill="#141414"/>
<path d="M820.79 1439.58C858.63 1491.4 927.35 1505.62 974.28 1471.35C1021.21 1437.08 1028.58 1367.29 990.74 1315.47L820.79 1439.58Z" fill="white"/>
<path d="M916.28 1493.6C908.75 1493.6 901.1 1492.82 893.41 1491.22C863.55 1485.04 836.75 1467.44 817.93 1441.67L815.83 1438.8L991.51 1310.51L993.61 1313.38C1032.55 1366.7 1024.81 1438.85 976.38 1474.22C958.89 1486.99 938.11 1493.6 916.28 1493.6ZM825.8 1440.32C843.44 1463.12 867.83 1478.68 894.85 1484.27C922.85 1490.07 950.31 1484.46 972.19 1468.48C1016.6 1436.05 1024.22 1370.3 989.93 1320.46L825.8 1440.32Z" fill="#A3B2CE"/>
<path d="M330.71 814.08C287.55 754.98 300.12 672.34 358.79 629.5C417.45 586.66 500 599.84 543.15 658.94C586.31 718.04 573.74 800.68 515.07 843.52C456.4 886.36 373.86 873.18 330.71 814.08Z" fill="white"/>
<path d="M438.03 872.18C396.07 872.18 354.54 852.75 327.83 816.17C283.59 755.59 296.53 670.56 356.68 626.63C416.83 582.71 501.77 596.26 546.01 656.85C567.44 686.19 576.24 722.07 570.8 757.86C565.35 793.66 546.3 825.1 517.16 846.38C493.32 863.8 465.58 872.18 438.03 872.18ZM333.57 811.99C375.5 869.41 455.99 882.27 512.97 840.66C540.57 820.5 558.62 790.72 563.78 756.8C568.94 722.87 560.6 688.86 540.28 661.04C498.35 603.62 417.87 590.76 360.88 632.37C303.89 673.99 291.64 754.56 333.57 811.99Z" fill="#A3B2CE"/>
<path d="M440.22 907.27L791.84 1388.78C791.84 1388.78 836.26 1360.41 878.75 1329.38C921.24 1298.35 952.93 1271.14 952.93 1271.14L601.32 789.63C601.32 789.63 558.66 816.71 519.72 845.15C480.77 873.59 440.22 907.27 440.22 907.27Z" fill="white"/>
<path d="M790.95 1393.58L435.39 906.67L437.96 904.54C438.37 904.2 479.04 870.46 517.63 842.28C556.22 814.1 598.99 786.9 599.42 786.63L602.23 784.85L957.75 1271.7L955.26 1273.84C954.94 1274.11 922.97 1301.5 880.86 1332.26C838.77 1363 794.21 1391.5 793.77 1391.78L790.95 1393.58ZM445.07 907.88L792.74 1383.99C803.16 1377.26 840.82 1352.7 876.66 1326.52C911.82 1300.85 939.83 1277.56 948.12 1270.58L600.42 794.43C590.3 800.93 554.54 824.13 521.81 848.02C488.97 872 454.59 900.05 445.07 907.88Z" fill="#A3B2CE"/>
<path d="M414.2 891.25C414.2 891.25 465.22 847.96 502.2 820.95C539.18 793.95 593.2 760.53 593.2 760.53L610.44 784.14L586.19 798.84C586.19 798.84 547.95 824.55 519.72 845.16C491.5 865.77 457.93 892.49 457.93 892.49L431.43 914.85L414.2 891.25Z" fill="white"/>
<path d="M430.81 920.02L409.38 890.67L411.9 888.53C412.41 888.1 463.45 844.85 500.11 818.07C536.78 791.29 590.79 757.83 591.33 757.5L594.13 755.77L615.59 785.16L588.02 801.86C587.78 802.03 549.65 827.68 521.81 848.01C493.97 868.34 460.47 894.99 460.14 895.25L430.81 920.02ZM419.02 891.82L432.06 909.67L455.64 889.76C456.05 889.43 489.67 862.69 517.62 842.27C545.57 821.86 583.81 796.13 584.2 795.87L605.28 783.09L592.27 765.28C580.74 772.48 535.96 800.68 504.29 823.81C472.5 847.04 429.75 882.79 419.02 891.82Z" fill="#A3B2CE"/>
<path d="M387.89 871.73C387.89 871.73 443.4 824.63 483.63 795.25C523.86 765.87 582.63 729.52 582.63 729.52L601.38 755.2L574.99 771.19C574.99 771.19 533.39 799.16 502.68 821.59C471.98 844.01 435.46 873.08 435.46 873.08L406.63 897.41L387.89 871.73Z" fill="white"/>
<path d="M406.02 902.58L383.07 871.16L385.59 869.02C386.15 868.55 441.66 821.5 481.54 792.38C521.42 763.26 580.17 726.86 580.76 726.5L583.56 724.77L606.54 756.23L576.84 774.22C576.57 774.41 535.08 802.32 504.79 824.45C474.5 846.57 438.05 875.56 437.69 875.85L406.02 902.58ZM392.71 872.31L407.26 892.24L433.17 870.37C433.61 870.01 470.17 840.93 500.59 818.72C531 796.52 572.59 768.53 573.01 768.24L596.23 754.17L581.7 734.28C569.55 741.86 520.42 772.78 485.72 798.12C450.9 823.55 404.01 862.79 392.71 872.31Z" fill="#A3B2CE"/>
<path d="M396.9 872.51C396.9 872.51 415.74 854.53 429.3 845.84L404.68 874.08L434.87 852.64L409.1 879.3L441.04 857.78L408.11 887.86L396.9 872.51Z" fill="#141414"/>
<path d="M580.23 738.63C580.23 738.63 557.37 751.1 544.96 761.37L579.35 746.51L549.74 768.74L582.98 752.31L552.76 776.19L591.43 753.98L580.23 738.63Z" fill="#141414"/>
<path d="M592.15 768.43C592.15 768.43 574.83 777.27 565.68 785.04L592.03 775.04L570.05 791.64L595.37 780.22L573.03 798.17L602.25 782.27L592.15 768.43Z" fill="#141414"/>
<path d="M423.1 891.88C423.1 891.88 436.8 878.07 446.97 871.73L429.42 893.79L451.92 877.9L433.34 898.54L457.24 882.72L433.2 905.72L423.1 891.88Z" fill="#141414"/>
<path d="M455.89 827.74C455.89 827.74 498.8 792.34 520.34 781.35C520.34 781.35 480.98 795.19 455.89 827.74Z" fill="#141414"/>
<path d="M523.04 786.149C523.04 786.149 505.3 792.859 488.46 804.839C477.37 812.769 465.71 824.259 459.88 831.819C459.88 831.829 508.68 793.479 523.04 786.149Z" fill="#141414"/>
<path d="M525.74 790.95C525.74 790.95 506.96 798.49 491.85 809.37C479.62 818.22 466.78 832.13 463.87 835.91C463.87 835.91 518.56 794.61 525.74 790.95Z" fill="#141414"/>
<path d="M467.86 840L528.45 795.76C528.45 795.76 508.63 804.14 495.25 813.9C481.87 823.67 467.86 840 467.86 840Z" fill="#141414"/>
<path d="M477.57 854.13C477.57 854.13 488.3 845.28 501.72 835.06C508.43 829.95 515.81 824.49 522.87 819.63C529.92 814.77 536.64 810.49 542.02 807.75C542.02 807.75 532.18 811.21 519.21 818.74C512.72 822.5 505.45 827.29 498.23 833.16C491.01 839.02 483.85 845.99 477.57 854.13Z" fill="#141414"/>
<path d="M504.46 835.53C501.67 837.73 498.85 840.13 496.13 842.66C493.55 845.06 491.05 847.55 488.73 850.01C485.54 853.4 482.93 856.44 481.56 858.22C481.56 858.22 498.81 844.95 507.76 838.13C511.92 834.96 521.53 827.9 525.93 824.84C526.26 824.61 526.94 824.12 527.27 823.9C531.97 820.66 541.14 814.38 544.73 812.55C544.73 812.55 539.95 814.35 532.96 817.78C529.71 819.38 525.99 821.33 522.06 823.6C516.49 826.83 510.42 830.83 504.46 835.53Z" fill="#141414"/>
<path d="M510.7 837.91C507.64 840.24 504.53 842.86 501.57 845.57C498.68 848.22 495.93 850.95 493.48 853.5C489.29 857.84 486.24 861.41 485.55 862.29C485.55 862.29 509.32 844.59 513.8 841.18C515.88 839.59 528.26 830.54 530.46 829C530.62 828.89 531.5 828.25 531.66 828.14C534.01 826.52 545.63 818.24 547.43 817.33C547.43 817.33 542.56 819.28 535.76 822.65C532.48 824.28 528.75 826.23 524.92 828.45C520.25 831.16 515.36 834.35 510.7 837.91Z" fill="#141414"/>
<path d="M799.43 1418.78C799.43 1418.78 856.2 1383.36 893.18 1356.35C930.16 1329.35 978.43 1288.06 978.43 1288.06L961.19 1264.45L939.81 1283.08C939.81 1283.08 903.67 1311.68 875.45 1332.29C847.23 1352.9 811.56 1376.74 811.56 1376.74L782.19 1395.17L799.43 1418.78Z" fill="white"/>
<path d="M798.51 1423.54L777.08 1394.19L809.68 1373.73C809.95 1373.55 845.53 1349.75 873.37 1329.43C901.21 1309.1 937.26 1280.59 937.62 1280.3L961.79 1259.24L983.25 1288.63L980.75 1290.77C980.27 1291.19 931.95 1332.45 895.28 1359.23C858.62 1386 801.88 1421.45 801.31 1421.8L798.51 1423.54ZM787.31 1396.16L800.35 1414.01C812.23 1406.54 859.29 1376.7 891.09 1353.48C922.77 1330.35 963.25 1296.29 973.62 1287.5L960.61 1269.68L942.15 1285.77C941.66 1286.17 905.51 1314.76 877.55 1335.17C849.59 1355.59 813.89 1379.46 813.53 1379.7L787.31 1396.16Z" fill="#A3B2CE"/>
<path d="M810 1449.78C810 1449.78 871.76 1411.24 911.99 1381.86C952.22 1352.48 1004.74 1307.57 1004.74 1307.57L985.99 1281.89L962.73 1302.16C962.73 1302.16 923.42 1333.27 892.71 1355.69C862.01 1378.11 823.2 1404.04 823.2 1404.04L791.25 1424.09L810 1449.78Z" fill="white"/>
<path d="M809.08 1454.54L786.13 1423.12L821.31 1401.04C821.61 1400.84 860.33 1374.94 890.62 1352.83C920.91 1330.71 960.13 1299.69 960.53 1299.38L986.58 1276.68L1009.56 1308.14L1007.06 1310.28C1006.53 1310.73 953.98 1355.62 914.1 1384.74C874.22 1413.86 812.51 1452.42 811.89 1452.8L809.08 1454.54ZM796.37 1425.09L810.92 1445.02C823.43 1437.15 875.08 1404.43 909.9 1379C944.6 1353.66 989.01 1316.27 999.93 1307.01L985.4 1287.12L965.06 1304.85C964.54 1305.27 925.21 1336.37 894.81 1358.58C864.4 1380.79 825.57 1406.76 825.18 1407.02L796.37 1425.09Z" fill="#A3B2CE"/>
<path d="M812.01 1440.96C812.01 1440.96 834.87 1428.49 847.28 1418.22L812.89 1433.08L842.5 1410.85L809.26 1427.28L839.48 1403.41L800.8 1425.62L812.01 1440.96Z" fill="#141414"/>
<path d="M995.34 1307.09C995.34 1307.09 976.5 1325.07 962.94 1333.76L987.56 1305.52L957.37 1326.96L983.14 1300.3L951.2 1321.82L984.13 1291.74L995.34 1307.09Z" fill="#141414"/>
<path d="M970.59 1286.66C970.59 1286.66 956.89 1300.47 946.72 1306.81L964.27 1284.75L941.77 1300.64L960.35 1280L936.45 1295.82L960.49 1272.82L970.59 1286.66Z" fill="#141414"/>
<path d="M801.54 1410.1C801.54 1410.1 818.87 1401.26 828.01 1393.49L801.66 1403.49L823.64 1386.89L798.32 1398.31L820.66 1380.36L791.44 1396.26L801.54 1410.1Z" fill="#141414"/>
<path d="M872.61 1398.4C872.61 1398.4 919.39 1368.3 936.41 1351.13C936.41 1351.13 911.25 1384.4 872.61 1398.4Z" fill="#141414"/>
<path d="M932.66 1347.09C932.66 1347.09 920.87 1361.94 904.33 1374.34C893.4 1382.49 878.91 1390.09 869.93 1393.35C869.93 1393.35 921.32 1358.54 932.66 1347.09Z" fill="#141414"/>
<path d="M928.91 1343.06C928.91 1343.06 916.01 1358.65 901.05 1369.73C888.9 1378.69 871.74 1386.68 867.25 1388.31C867.26 1388.31 923.24 1348.78 928.91 1343.06Z" fill="#141414"/>
<path d="M864.58 1383.27L925.17 1339.03C925.17 1339.03 911.16 1355.36 897.78 1365.13C884.4 1374.89 864.58 1383.27 864.58 1383.27Z" fill="#141414"/>
<path d="M854.08 1369.71C854.08 1369.71 865.78 1362.19 879.6 1352.52C886.51 1347.68 893.96 1342.31 900.73 1337.07C907.51 1331.83 913.62 1326.73 917.88 1322.44C917.88 1322.44 911.59 1330.76 900.47 1340.83C894.91 1345.86 888.14 1351.33 880.35 1356.42C872.55 1361.51 863.74 1366.21 854.08 1369.71Z" fill="#141414"/>
<path d="M879.98 1349.76C877.03 1351.75 873.89 1353.71 870.66 1355.53C867.59 1357.26 864.46 1358.87 861.4 1360.34C857.2 1362.35 853.51 1363.91 851.4 1364.67C851.4 1364.67 869.3 1352.28 878.51 1345.83C882.8 1342.83 892.44 1335.83 896.7 1332.57C897.02 1332.33 897.69 1331.83 898 1331.58C902.52 1328.09 911.29 1321.26 914.13 1318.4C914.13 1318.4 910.96 1322.4 905.56 1328.01C903.05 1330.62 900.06 1333.57 896.7 1336.62C891.93 1340.95 886.26 1345.52 879.98 1349.76Z" fill="#141414"/>
<path d="M879.61 1343.1C876.46 1345.3 873.02 1347.47 869.53 1349.46C866.13 1351.41 862.69 1353.2 859.51 1354.75C854.1 1357.42 849.77 1359.24 848.72 1359.62C848.72 1359.62 872.81 1342.36 877.42 1339.14C879.56 1337.64 891.96 1328.61 894.09 1326.98C894.25 1326.86 895.12 1326.22 895.28 1326.09C897.54 1324.35 908.96 1315.79 910.38 1314.36C910.38 1314.36 907.05 1318.4 901.76 1323.86C899.21 1326.49 896.21 1329.45 892.93 1332.42C888.95 1336.05 884.41 1339.74 879.61 1343.1Z" fill="#141414"/>
<path d="M560.25 815.35C560.25 815.35 600.23 820.54 639.16 839.16L601.32 789.63L560.25 815.35Z" fill="#141414"/>
<path d="M467.01 883.44C467.01 883.44 564.77 873.58 615.5 883.58C666.23 893.58 686.02 900.85 686.02 900.85L725.35 957.18C725.35 957.18 668.26 940.96 597.56 938.3C526.86 935.64 487.33 940.99 465.63 945.97L440.23 907.27L467.01 883.44Z" fill="#141414"/>
<path d="M506.45 999.41C504.29 1002.32 633.98 993.15 692.65 999.16C737.15 1003.72 765.53 1014.71 765.53 1014.71L813.25 1077.58C813.25 1077.58 766.6 1062.15 723.17 1058.31C676.75 1054.21 591.65 1056.63 552.44 1059.93L506.45 999.41Z" fill="#141414"/>
<path d="M596.09 1122.15C593.93 1125.06 723.62 1115.89 782.3 1121.9C826.8 1126.46 855.18 1137.44 855.18 1137.44L902.9 1200.31C902.9 1200.31 856.25 1184.88 812.82 1181.04C766.39 1176.94 681.3 1179.36 642.09 1182.66L596.09 1122.15Z" fill="#141414"/>
<path d="M942.22 1256.65C942.22 1256.65 913.84 1245.66 869.34 1241.1C810.66 1235.09 680.98 1244.26 683.14 1241.36L729.14 1301.87C768.35 1298.57 865.7 1298.06 912.12 1302.16L952.95 1271.15L942.22 1256.65Z" fill="#141414"/>
<path d="M766.42 1357.88C766.42 1357.88 810.03 1353.17 833.9 1361.08L791.85 1388.79L766.42 1357.88Z" fill="#141414"/>
<path d="M457.29 912.26L785.66 1361.93L803.18 1363.61L466.19 902.14L457.29 912.26Z" fill="#141414"/>
<path d="M565.55 835.01L884.44 1271.69L903.84 1274.72L588.83 843.34L565.55 835.01Z" fill="white"/>
<path d="M656.38 909.83L840.82 1162.4L858.88 1167.31L677.89 919.46L656.38 909.83Z" fill="white"/>
<path d="M578.3 981.32L525.05 893.54L598.81 977.2L578.3 981.32Z" fill="white"/>
<path d="M673.1 1111.15L740.52 1188.6L683.28 1092.86L673.1 1111.15Z" fill="white"/>
<path d="M834.78 1444.89C834.78 1444.89 859.68 1432.73 875.06 1419.09C875.06 1419.09 861.65 1446.98 886.6 1461.33C911.56 1475.68 959.6 1467.13 970.62 1459.09C970.62 1459.09 953.88 1472.52 934.12 1478.5C914.9 1484.32 886.35 1480.81 866.99 1470.82C847.63 1460.83 834.78 1444.89 834.78 1444.89Z" fill="#141414"/>
<path d="M956.31 1358.55L993.5 1330.18C993.5 1330.18 1003.57 1350.58 1007.34 1375.57C1009.81 1391.95 1004.99 1421.92 1000.42 1428.88C995.85 1435.84 998.91 1425.16 998.91 1425.16C998.91 1425.16 1005.68 1368.34 992.76 1357.27C981.51 1347.6 956.31 1358.55 956.31 1358.55Z" fill="#141414"/>
<path d="M889.01 1410.11L948.02 1367.02L937.09 1383.45L957.27 1374.74L943.05 1389.95L962.81 1383.97L951.88 1400.39L969.49 1394.77L955.84 1410.77L968.15 1407.81C968.15 1407.81 966.03 1421.42 951.08 1432.34C936.13 1443.26 923.24 1445.43 923.24 1445.43L934.32 1432.51L911.41 1440.79L927.78 1425.21L904.87 1433.49L919.31 1416.91L902.27 1423.32L913.62 1404.17L889.01 1410.11Z" fill="#141414"/>
<path d="M433.69 624.5C462.52 642.2 482.69 677.8 484.58 708.55C486.47 739.3 477.18 764.22 455.35 785.96C425.8 815.39 384.53 824.48 346.32 811.45C356.52 830.06 380.91 843.62 405.97 841.81L556.23 729.89C554.15 680.85 495.95 611.19 433.69 624.5Z" fill="#141414"/>
<path d="M458.84 1292.36C458.84 1292.36 423.32 1349.19 462.39 1398.92C501.46 1448.65 494.36 1487.72 508.56 1516.13C522.77 1544.54 617.13 1581.43 714 1585.47C841.88 1590.8 967.99 1569.48 1071 1590.8C1174 1612.11 1155 1686.62 1155 1686.62C1155 1686.62 1226.04 1644 1222.49 1601.38C1218.94 1558.76 1282.87 1558.76 1286.42 1512.58C1289.97 1466.41 1236.69 1398.92 1140.79 1395.37C1044.89 1391.82 845.41 1418.52 703.34 1404.31C561.27 1390.09 476.6 1345.63 458.84 1292.36Z" fill="white"/>
<path d="M458.61 1309.17C471.57 1332.15 496.4 1352.76 531.43 1369.4C575.39 1390.28 632.99 1404.41 702.64 1411.37C731.13 1414.22 763.13 1415.6 800.48 1415.6C863.81 1415.6 931.44 1411.5 991.1 1407.89C1039.96 1404.93 1086.11 1402.13 1121.34 1402.13C1128.28 1402.13 1134.74 1402.24 1140.54 1402.46C1203.5 1404.79 1238.98 1434.37 1254.53 1451.8C1271.51 1470.83 1280.79 1493.35 1279.35 1512.03C1277.85 1531.57 1263.41 1541.6 1248.12 1552.21C1231.79 1563.55 1213.29 1576.4 1215.42 1601.96C1217.57 1627.75 1185.37 1656.76 1163.51 1672.45C1163.46 1661.43 1161.17 1646.06 1151.61 1630.76C1137.06 1607.48 1110.43 1591.69 1072.45 1583.83C1040.04 1577.12 1002.92 1574 955.66 1574C925.14 1574 894.2 1575.23 861.44 1576.54C828.15 1577.87 793.72 1579.24 759.23 1579.24C743.23 1579.24 728.53 1578.95 714.31 1578.36C669.93 1576.51 623.18 1567.59 582.67 1553.23C540.02 1538.12 519.71 1522.51 514.93 1512.94C510.38 1503.84 508.15 1493.26 505.57 1481C500.61 1457.47 494.44 1428.19 467.99 1394.52C453.22 1375.72 448.13 1353.61 452.86 1328.81C454.3 1321.23 456.49 1314.51 458.61 1309.17ZM458.84 1292.36C458.84 1292.36 423.32 1349.19 462.39 1398.92C501.46 1448.65 494.36 1487.72 508.56 1516.13C522.77 1544.54 617.13 1581.43 714 1585.47C729.1 1586.1 744.2 1586.36 759.22 1586.36C826.99 1586.36 893.54 1581.12 955.65 1581.12C996.31 1581.12 1035.06 1583.37 1071 1590.8C1174 1612.11 1155 1686.62 1155 1686.62C1155 1686.62 1226.04 1644 1222.49 1601.38C1218.94 1558.76 1282.87 1558.76 1286.42 1512.58C1289.97 1466.41 1236.69 1398.92 1140.79 1395.37C1134.71 1395.14 1128.2 1395.04 1121.33 1395.04C1042.92 1395.04 915.66 1408.5 800.47 1408.5C766.52 1408.5 733.63 1407.33 703.34 1404.3C561.27 1390.09 476.6 1345.63 458.84 1292.36Z" fill="#A3B2CE"/>
<path d="M341.63 887.44C341.63 887.44 344.48 975.18 444.63 1040.17C554.15 1111.24 892.16 1132.52 1091.07 1093.45C1289.97 1054.38 1385.88 1079.24 1432.05 1114.76C1478.23 1150.28 1513.74 1200 1488.88 1249.73C1464.02 1299.46 1453.36 1278.14 1435.6 1338.52C1417.84 1398.9 1385.87 1391.8 1385.87 1391.8C1385.87 1391.8 1385.87 1263.93 1279.31 1242.62C1172.75 1221.31 991.06 1324.36 711.01 1285.24C447.3 1248.4 370.03 1199.99 359.37 1143.17C348.71 1086.34 370.03 1086.34 341.61 1033.06C313.22 979.79 313.22 919.41 341.63 887.44Z" fill="white"/>
<path d="M337.28 906.52C339.33 915.91 342.89 928.26 349.07 942.3C361.53 970.61 387.56 1011.61 440.77 1046.13C476.14 1069.08 536.56 1088.14 615.51 1101.25C687.89 1113.27 774.48 1119.89 859.35 1119.89C946.97 1119.89 1027.57 1113.15 1092.45 1100.41C1158.97 1087.34 1218.06 1080.72 1268.08 1080.72C1339.8 1080.72 1393.51 1094.06 1427.72 1120.38C1452.36 1139.33 1470.7 1159.98 1480.75 1180.08C1492.36 1203.31 1492.96 1225.67 1482.53 1246.54C1472.3 1267.01 1464.95 1274.48 1457.84 1281.71C1447.93 1291.79 1439.38 1300.49 1428.79 1336.51C1417.58 1374.63 1401.09 1382.93 1392.69 1384.57C1391.93 1372.89 1389.17 1348.6 1379.19 1322.64C1360.85 1274.94 1326.79 1244.86 1280.72 1235.64C1270.39 1233.57 1259.27 1232.57 1246.74 1232.57C1209.06 1232.57 1164.16 1241.93 1112.18 1252.77C1038.9 1268.06 947.7 1287.08 839.68 1287.08C797.16 1287.08 754.21 1284.09 712.01 1278.2C587.37 1260.79 499.44 1240.18 443.2 1215.2C396.26 1194.35 371.85 1171.05 366.38 1141.85C362.27 1119.93 363.09 1106.97 363.82 1095.55C364.96 1077.59 365.87 1063.4 347.9 1029.71C334.7 1004.95 327.42 977.44 327.42 952.25C327.42 934.95 330.86 919.24 337.28 906.52ZM341.63 887.44C313.21 919.41 313.21 979.79 341.63 1033.07C370.05 1086.35 348.73 1086.35 359.39 1143.18C370.05 1200.01 447.31 1248.41 711.03 1285.25C756.48 1291.6 799.32 1294.2 839.69 1294.2C1024.33 1294.2 1156.86 1239.68 1246.75 1239.69C1258.3 1239.69 1269.17 1240.59 1279.33 1242.62C1385.89 1263.93 1385.89 1391.8 1385.89 1391.8C1385.89 1391.8 1387.05 1392.06 1389.05 1392.06C1397.55 1392.06 1421.24 1387.4 1435.62 1338.52C1453.38 1278.14 1464.04 1299.45 1488.9 1249.73C1513.76 1200 1478.25 1150.28 1432.07 1114.76C1402.49 1092 1352.51 1073.62 1268.1 1073.62C1220.76 1073.62 1162.56 1079.41 1091.1 1093.45C1024.78 1106.48 943 1112.79 859.37 1112.79C692.19 1112.79 517.66 1087.54 444.66 1040.17C344.48 975.18 341.63 887.44 341.63 887.44Z" fill="#A3B2CE"/>
<path d="M642.93 1234.67L596.33 1224.16L600.78 1204.44L607.95 1206.06L617.63 1163.13L610.47 1161.51L614.92 1141.79L665.25 1153.15C675.12 1155.38 682.63 1157.67 687.78 1160.03C692.84 1162.42 696.49 1165.71 698.74 1169.91C700.97 1174.19 701.55 1178.71 700.47 1183.49C699.42 1188.15 697.14 1191.53 693.63 1193.65C690.03 1195.82 685.99 1196.99 681.52 1197.14C686.93 1200.19 690.79 1203.88 693.09 1208.21C695.41 1212.63 696.05 1217.15 695.01 1221.77C693.76 1227.3 690.93 1231.59 686.5 1234.66C682.08 1237.69 676.64 1239.09 670.18 1238.88C663.77 1238.73 654.69 1237.32 642.93 1234.67ZM643.08 1198.67L639.42 1214.89L646.59 1216.5C651.17 1217.53 654.6 1217.68 656.88 1216.95C659.12 1216.21 660.58 1214.34 661.26 1211.34C661.89 1208.54 661.47 1206.27 660 1204.52C658.52 1202.82 655.23 1201.39 650.14 1200.24L643.08 1198.67ZM649.86 1168.65L646.47 1183.69L653.52 1185.28C658.3 1186.36 661.59 1186.38 663.4 1185.33C665.13 1184.27 666.25 1182.61 666.76 1180.36C667.2 1178.43 666.94 1176.54 665.98 1174.71C665.02 1172.88 661.62 1171.3 655.78 1169.99L649.86 1168.65Z" fill="#141414"/>
<path d="M733.26 1250.55L699.98 1247.22L702 1227.11L708.4 1227.75L728.55 1185.54L721.79 1184.86L723.8 1164.75L784.2 1170.8L782.19 1190.91L775.42 1190.23L787.1 1235.63L793.26 1236.25L791.24 1256.36L747.39 1251.97L749.24 1233.55L756.61 1234.29L754.47 1223.4L732.97 1221.25L728.23 1231.45L735.12 1232.14L733.26 1250.55ZM747.45 1188.64L737.21 1211.1L752.25 1212.61L747.45 1188.64Z" fill="#141414"/>
<path d="M852.3 1253.27L806.48 1255.85L805.34 1235.67L812.19 1235.28L809.72 1191.34L802.87 1191.72L801.73 1171.54L847.55 1168.96C851.67 1168.73 855.49 1168.58 859.02 1168.53C862.54 1168.47 865.56 1168.51 868.08 1168.63C870.6 1168.75 872.92 1168.97 875.05 1169.3C881.02 1170.22 885.96 1172.68 889.87 1176.67C893.83 1180.75 895.97 1185.69 896.3 1191.51C896.55 1195.87 895.64 1199.9 893.57 1203.58C891.51 1207.22 888.68 1209.98 885.1 1211.84L897.82 1230.46L903.88 1230.12L905.02 1250.3L874.66 1252.01L854.36 1218.62L844 1219.2L844.8 1233.44L851.16 1233.09L852.3 1253.27ZM842.24 1187.81L843.14 1203.87L846.78 1203.67C851.55 1203.4 854.77 1203.08 856.45 1202.7C858.25 1202.32 859.74 1201.42 860.92 1200.01C862.1 1198.69 862.63 1196.93 862.51 1194.76C862.39 1192.58 861.66 1190.87 860.34 1189.65C859.01 1188.39 857.37 1187.67 855.42 1187.49C853.54 1187.31 850.14 1187.36 845.21 1187.64L842.24 1187.81Z" fill="#141414"/>
<path d="M962.45 1242.96L915.03 1248.79L912.56 1228.73L919.85 1227.84L914.48 1184.16L907.19 1185.06L904.72 1165L955.93 1158.7C965.97 1157.46 973.81 1157.09 979.46 1157.58C985.03 1158.12 989.58 1159.98 993.11 1163.18C996.65 1166.45 998.72 1170.52 999.32 1175.38C999.9 1180.12 998.9 1184.07 996.32 1187.25C993.66 1190.51 990.25 1192.97 986.1 1194.62C992.22 1195.66 997.1 1197.83 1000.72 1201.14C1004.4 1204.52 1006.52 1208.56 1007.1 1213.26C1007.79 1218.88 1006.57 1223.89 1003.44 1228.27C1000.3 1232.61 995.66 1235.77 989.5 1237.75C983.44 1239.75 974.42 1241.49 962.45 1242.96ZM946.69 1178.49L948.57 1193.79L955.74 1192.91C960.6 1192.31 963.71 1191.22 965.06 1189.62C966.33 1188.04 966.83 1186.1 966.55 1183.81C966.31 1181.84 965.43 1180.15 963.91 1178.75C962.39 1177.34 958.66 1177.01 952.72 1177.74L946.69 1178.49ZM950.45 1209.03L952.48 1225.54L959.77 1224.64C964.43 1224.07 967.71 1223.05 969.61 1221.59C971.47 1220.14 972.21 1217.89 971.84 1214.84C971.49 1211.99 970.33 1209.99 968.35 1208.84C966.38 1207.74 962.8 1207.5 957.62 1208.14L950.45 1209.03Z" fill="#141414"/>
<path d="M1099.75 1223.68L1020.06 1235.44L1017.11 1215.44L1023.59 1214.48L1017.17 1170.95L1010.56 1171.92L1007.61 1151.92L1087.42 1140.14L1091.36 1166.86L1069.44 1170.09L1068.45 1163.36L1049.47 1166.16L1051.36 1179.01L1067.87 1176.58L1070.38 1193.57L1053.87 1196.01L1055.89 1209.7L1074.87 1206.9L1073.88 1200.17L1095.8 1196.94L1099.75 1223.68Z" fill="#141414"/>
<path d="M1157.27 1215.2L1111.83 1221.58L1109.02 1201.56L1115.81 1200.6L1109.69 1157.02L1102.9 1157.97L1100.09 1137.95L1145.53 1131.57C1149.62 1130.99 1153.41 1130.53 1156.92 1130.18C1160.43 1129.83 1163.44 1129.61 1165.96 1129.52C1168.48 1129.43 1170.81 1129.46 1172.96 1129.61C1178.99 1130.03 1184.11 1132.07 1188.35 1135.72C1192.63 1139.45 1195.18 1144.2 1195.99 1149.97C1196.6 1154.3 1196.03 1158.38 1194.28 1162.23C1192.52 1166.03 1189.94 1169.01 1186.53 1171.16L1200.76 1188.65L1206.77 1187.81L1209.58 1207.83L1179.46 1212.06L1156.45 1180.48L1146.17 1181.93L1148.15 1196.06L1154.46 1195.17L1157.27 1215.2ZM1141.79 1150.81L1144.03 1166.74L1147.64 1166.23C1152.37 1165.57 1155.55 1164.98 1157.2 1164.46C1158.96 1163.93 1160.37 1162.91 1161.43 1161.41C1162.5 1159.99 1162.88 1158.2 1162.58 1156.04C1162.27 1153.87 1161.41 1152.24 1159.99 1151.13C1158.56 1149.98 1156.87 1149.4 1154.9 1149.39C1153.02 1149.37 1149.63 1149.7 1144.74 1150.39L1141.79 1150.81Z" fill="#141414"/>
<path d="M680.1 1527.6L661.45 1523.96L666.64 1497.39L685.29 1501.03C686.1 1508.7 689.58 1513.13 695.74 1514.33C700.19 1515.2 702.76 1513.85 703.46 1510.27C703.82 1508.41 703.35 1506.71 702.05 1505.17C700.64 1503.49 697.49 1500.94 692.6 1497.51C686.44 1493.13 682 1489.52 679.25 1486.67C676.67 1484.06 674.67 1480.77 673.27 1476.78C671.85 1472.83 671.57 1468.72 672.41 1464.43C673.92 1456.73 677.59 1451.2 683.44 1447.85C689.25 1444.49 695.79 1443.52 703.06 1444.94C710.33 1446.36 716.08 1449.63 720.32 1454.74L721.32 1449.62L740.08 1453.29L735.47 1476.88L716.94 1473.26C715.95 1466.3 712.57 1462.26 706.82 1461.14C702.77 1460.35 700.41 1461.68 699.73 1465.13C699.41 1466.8 699.73 1468.16 700.72 1469.22C701.66 1470.31 704.88 1472.94 710.38 1477.11C717.73 1482.75 722.59 1486.77 724.97 1489.18C726.18 1490.36 727.35 1491.92 728.48 1493.85C729.61 1495.78 730.48 1497.71 731.09 1499.65C732.51 1503.97 732.78 1508.39 731.9 1512.92C730.54 1519.87 726.81 1525.24 720.71 1529.04C714.59 1532.91 707.6 1534.08 699.74 1532.55C692.43 1531.12 686.24 1527.67 681.17 1522.18L680.1 1527.6Z" fill="#141414"/>
<path d="M790.25 1541.35L745.85 1539.53L746.68 1519.33L753.05 1519.59L754.86 1475.62L748.37 1475.36L749.2 1455.16L793.72 1456.99L792.89 1477.18L787.49 1476.96L786.96 1489.82L806.49 1490.62L807.02 1477.76L801.56 1477.53L802.39 1457.33L846.85 1459.16L846.02 1479.36L839.65 1479.1L837.84 1523.07L844.21 1523.33L843.38 1543.53L798.92 1541.7L799.75 1521.51L805.21 1521.74L805.78 1507.91L786.25 1507.1L785.68 1520.93L791.08 1521.15L790.25 1541.35Z" fill="#141414"/>
<path d="M857.13 1500.55C856.9 1493.51 858.39 1486.64 861.6 1479.93C864.78 1473.27 869.87 1467.57 876.88 1462.84C879.38 1461.18 881.95 1459.84 884.61 1458.82C887.27 1457.8 890.17 1456.99 893.3 1456.37C896.44 1455.76 899.75 1455.4 903.22 1455.28C918.34 1454.77 930.2 1458.81 938.79 1467.39C943.06 1471.62 946.33 1476.25 948.61 1481.27C950.88 1486.3 952.12 1491.66 952.31 1497.36C952.7 1509.13 948.76 1519.51 940.48 1528.49C932.2 1537.47 920.75 1542.21 906.15 1542.7C892.04 1543.17 880.45 1539.47 871.4 1531.59C862.32 1523.75 857.56 1513.41 857.13 1500.55ZM893.77 1499.32C894.09 1508.7 895.21 1515 897.14 1518.22C898.99 1521.48 901.78 1523.04 905.5 1522.92C909.18 1522.8 911.88 1521.11 913.59 1517.85C915.3 1514.56 916 1508.14 915.68 1498.59C915.37 1489.33 914.27 1483.05 912.38 1479.75C910.53 1476.49 907.71 1474.93 903.9 1475.05C900.26 1475.17 897.58 1476.86 895.87 1480.12C894.15 1483.37 893.45 1489.78 893.77 1499.32Z" fill="#141414"/>
<path d="M1014.04 1535.93L964.78 1538.95L963.54 1518.78L971.72 1518.28L969.03 1474.35L960.85 1474.85L959.61 1454.67L1011.29 1451.51C1023.17 1450.78 1031.92 1451.4 1037.56 1453.37C1043.19 1455.38 1047.43 1458.32 1050.26 1462.2C1053.09 1466.08 1054.65 1470.42 1054.95 1475.23C1055.31 1481.17 1054.08 1486.19 1051.25 1490.29C1048.42 1494.44 1044.54 1497.55 1039.6 1499.64C1034.74 1501.68 1027.12 1503.02 1016.74 1503.66L1003.59 1504.46L1004.31 1516.27L1012.79 1515.75L1014.04 1535.93ZM1001.53 1470.65L1002.5 1486.46L1008.86 1486.07C1013.3 1485.8 1016.5 1485.08 1018.45 1483.9C1020.33 1482.73 1021.17 1480.63 1020.98 1477.6C1020.86 1475.62 1020.23 1473.98 1019.1 1472.67C1018.01 1471.4 1016.6 1470.63 1014.89 1470.37C1013.25 1470.1 1010.49 1470.09 1006.62 1470.33L1001.53 1470.65Z" fill="#141414"/>
<path d="M1242.29 1156.48C1242.29 1156.48 1370.15 1145.82 1423.43 1228.4L1242.29 1156.48Z" fill="white"/>
<path d="M1242.29 1156.48C1259.18 1153.98 1276.41 1154.02 1293.47 1155.57C1302.02 1156.29 1310.51 1157.65 1318.95 1159.33C1327.37 1161.08 1335.7 1163.35 1343.91 1166.01C1352.06 1168.86 1360.06 1172.17 1367.8 1176.04L1373.52 1179.12C1375.41 1180.17 1377.24 1181.34 1379.1 1182.44C1380.97 1183.52 1382.77 1184.73 1384.55 1185.97C1386.3 1187.24 1388.15 1188.37 1389.82 1189.76C1396.8 1194.89 1403.05 1200.93 1408.83 1207.3C1414.52 1213.78 1419.37 1220.92 1423.45 1228.39C1418.04 1221.79 1412.56 1215.38 1406.33 1209.73C1404.85 1208.25 1403.18 1206.96 1401.62 1205.57L1399.24 1203.53C1398.44 1202.86 1397.58 1202.25 1396.75 1201.61C1395.07 1200.37 1393.46 1199.04 1391.77 1197.82L1386.61 1194.28C1372.68 1185.11 1357.46 1178.07 1341.65 1172.73C1333.75 1170.03 1325.67 1167.81 1317.52 1165.88C1309.38 1163.87 1301.11 1162.4 1292.81 1161.05C1276.15 1158.51 1259.31 1156.92 1242.29 1156.48Z" fill="#A3B2CE"/>
<path d="M552.37 1172.46C552.37 1172.46 435.16 1159.14 395.21 1095.21L552.37 1172.46Z" fill="white"/>
<path d="M552.37 1172.46C537.28 1171.98 522.29 1169.61 507.55 1166.26C492.8 1162.88 478.28 1158.3 464.28 1152.36C450.32 1146.35 436.8 1139.01 424.73 1129.6C418.72 1124.89 413 1119.77 408 1114C403.04 1108.21 398.6 1101.97 395.22 1095.22C399.93 1101.13 404.98 1106.6 410.48 1111.56L414.65 1115.22L419 1118.65C420.43 1119.81 421.96 1120.86 423.44 1121.95C424.93 1123.03 426.41 1124.13 427.98 1125.11C434.11 1129.21 440.47 1132.97 447.03 1136.36C453.54 1139.85 460.24 1142.98 467.07 1145.83C473.85 1148.81 480.78 1151.45 487.79 1153.92C494.77 1156.47 501.87 1158.68 508.98 1160.92C523.24 1165.24 537.69 1169.07 552.37 1172.46Z" fill="#A3B2CE"/>
<path d="M1087.79 1494.78C1093.91 1493.77 1100.13 1493.57 1106.35 1493.6C1112.57 1493.72 1118.8 1494.17 1124.98 1495.11C1137.33 1496.96 1149.58 1500.43 1160.99 1506.02C1166.66 1508.87 1172.1 1512.22 1177.13 1516.14L1180.81 1519.19L1184.28 1522.48C1185.47 1523.54 1186.49 1524.78 1187.57 1525.95C1188.63 1527.14 1189.68 1528.33 1190.61 1529.64C1198.54 1539.64 1203.37 1551.79 1205.01 1564.02C1200.49 1552.5 1194.52 1541.89 1186.38 1533.22C1178.36 1524.45 1168.46 1517.7 1157.85 1512.38C1147.16 1507.16 1135.72 1503.33 1123.95 1500.53C1118.06 1499.16 1112.1 1497.97 1106.07 1497.05C1100.03 1496.07 1093.95 1495.34 1087.79 1494.78Z" fill="#A3B2CE"/>
<path d="M632.29 1478.8C623.01 1480.18 613.65 1480.36 604.32 1480.05C594.99 1479.66 585.65 1478.65 576.43 1476.81C567.22 1474.95 558.06 1472.34 549.44 1468.19C545.14 1466.13 541.01 1463.64 537.26 1460.62C533.6 1457.53 530.27 1453.85 528.42 1449.5C534.78 1456.42 543.15 1460.05 551.59 1463.03C560.08 1465.99 568.93 1468.03 577.83 1469.84C586.75 1471.63 595.78 1473.1 604.86 1474.51C613.93 1475.93 623.06 1477.22 632.29 1478.8Z" fill="#A3B2CE"/>
</svg>
