<svg width="47" height="141" viewBox="0 0 47 141" fill="none" xmlns="http://www.w3.org/2000/svg">
<path d="M43.3431 23.995H3.28406V116.782H43.3431V23.995Z" fill="#FFFEF7"/>
<path d="M43.967 117.407H2.66003V23.371H43.967V117.407ZM3.90804 116.158H42.719V24.619H3.90804V116.158Z" fill="#738C74"/>
<path d="M38.214 116.782V99.148L19.027 116.782H38.214Z" fill="white"/>
<path d="M8.41406 116.782H19.0271L38.2141 99.148V78.872L8.41406 106.26V116.782Z" fill="#E94C5B"/>
<path d="M8.41406 106.26L38.2141 78.872V58.595L8.41406 85.982V106.26Z" fill="white"/>
<path d="M8.41406 65.706V85.982L38.2141 58.595V38.316L8.41406 65.706Z" fill="#738C74"/>
<path d="M8.41406 23.995V45.428L31.7351 23.995H8.41406Z" fill="#E94C5B"/>
<path d="M38.2141 23.995H31.7351L8.41406 45.428V65.706L38.2141 38.316V23.995Z" fill="white"/>
<path d="M43.432 122.376C43.432 132.587 34.426 140.866 23.315 140.866C12.203 140.866 3.19604 132.587 3.19604 122.376H43.432Z" fill="#738C74"/>
<path d="M43.343 116.341H3.284C1.471 116.341 0 117.691 0 119.359C0 121.025 1.471 122.377 3.284 122.377H43.343C45.157 122.377 46.628 121.025 46.628 119.359C46.628 117.69 45.157 116.341 43.343 116.341Z" fill="#738C74"/>
<path d="M43.4319 18.49C43.4319 8.278 34.4259 0 23.3149 0C12.2019 0 3.19495 8.278 3.19495 18.49H43.4319Z" fill="#738C74"/>
<path d="M43.343 24.526H3.284C1.471 24.526 0 23.175 0 21.508C0 19.841 1.471 18.489 3.284 18.489H43.343C45.157 18.489 46.628 19.841 46.628 21.508C46.628 23.176 45.157 24.526 43.343 24.526Z" fill="#738C74"/>
</svg>
