<svg width="7" height="7" viewBox="0 0 7 7" fill="none" xmlns="http://www.w3.org/2000/svg">
<path d="M4.40588 4.21987C4.45827 4.23733 4.5149 4.20902 4.53237 4.15662C4.54983 4.10423 4.52152 4.0476 4.46912 4.03013L4.40588 4.21987ZM3.5 3.8125H3.4C3.4 3.85554 3.42754 3.89376 3.46838 3.90737L3.5 3.8125ZM3.6 2.5058C3.6 2.45057 3.55523 2.4058 3.5 2.4058C3.44477 2.4058 3.4 2.45057 3.4 2.5058H3.6ZM4.46912 4.03013L3.53162 3.71763L3.46838 3.90737L4.40588 4.21987L4.46912 4.03013ZM3.6 3.8125V2.5058H3.4V3.8125H3.6ZM5.9 3.5C5.9 4.82548 4.82548 5.9 3.5 5.9V6.1C4.93594 6.1 6.1 4.93594 6.1 3.5H5.9ZM3.5 5.9C2.17452 5.9 1.1 4.82548 1.1 3.5H0.9C0.9 4.93594 2.06406 6.1 3.5 6.1V5.9ZM1.1 3.5C1.1 2.17452 2.17452 1.1 3.5 1.1V0.9C2.06406 0.9 0.9 2.06406 0.9 3.5H1.1ZM3.5 1.1C4.82548 1.1 5.9 2.17452 5.9 3.5H6.1C6.1 2.06406 4.93594 0.9 3.5 0.9V1.1Z" fill="white"/>
</svg>
