<svg width="800" height="210" viewBox="0 0 800 210" fill="none" xmlns="http://www.w3.org/2000/svg">
<path d="M795.802 76.4201C791.646 68.4793 783.853 63.2897 774.831 65.9083C778.499 64.8428 804.999 89.9056 781.548 117.688C775.436 124.924 768.539 131.422 759.697 134.815C677.543 166.318 624.873 69.5236 568.355 30.0104C524.543 -0.607708 463.29 -13.5844 418.985 23.8402C410.949 30.6253 404.593 38.4972 400.003 47.0476C395.417 38.4972 389.061 30.6253 381.025 23.8402C336.72 -13.5844 275.473 -0.607708 231.666 30.0104C175.143 69.5236 122.467 166.318 40.3135 134.815C31.4716 131.417 24.5751 124.924 18.4631 117.688C-4.99351 89.9109 21.5005 64.8428 25.1794 65.9083C16.1519 63.295 8.35953 68.4793 4.2036 76.4201C-0.85348 86.089 -0.986004 97.7987 1.8977 108.326C13.9361 152.282 60.1231 179.481 100.251 193.549C142.542 208.376 188.766 211.71 233.151 207.247C242.459 206.309 251.725 205.01 260.928 203.319C306.038 195.007 352.315 176.523 383.225 141.367C389.883 133.803 395.587 125.411 399.997 116.357C404.413 125.411 410.117 133.803 416.769 141.367C447.679 176.523 493.962 195.002 539.067 203.319C548.264 205.01 557.541 206.314 566.839 207.247C611.239 211.71 657.463 208.376 699.744 193.549C739.872 179.481 786.053 152.282 798.102 108.326C800.991 97.804 800.864 86.0943 795.802 76.4201Z" fill="#9D6837"/>
</svg>
