<svg width="7" height="7" viewBox="0 0 7 7" fill="none" xmlns="http://www.w3.org/2000/svg">
<path d="M6.02681 5.47486C6.02681 5.47486 5.68887 5.80678 5.60605 5.90409C5.47114 6.04806 5.31219 6.11604 5.10381 6.11604C5.08378 6.11604 5.0624 6.11604 5.04237 6.11471C4.64565 6.08938 4.27699 5.93475 4.00049 5.80279C3.24445 5.43754 2.58059 4.919 2.02893 4.26182C1.57344 3.71395 1.26889 3.2074 1.06719 2.66353C0.942965 2.33161 0.89755 2.07301 0.917586 1.82906C0.930943 1.6731 0.991052 1.5438 1.10192 1.43316L1.55741 0.978601C1.62286 0.917282 1.69232 0.883956 1.76044 0.883956C1.84459 0.883956 1.91272 0.934611 1.95546 0.977268C1.9568 0.978601 1.95813 0.979934 1.95947 0.981267C2.04095 1.05725 2.11842 1.1359 2.1999 1.21988C2.24131 1.26253 2.28405 1.30519 2.3268 1.34918L2.69146 1.71309C2.83304 1.85439 2.83304 1.98503 2.69146 2.12633C2.65272 2.16498 2.61532 2.20364 2.57658 2.24097C2.46438 2.35561 2.55252 2.26764 2.43631 2.37162C2.43364 2.37429 2.43097 2.37562 2.42963 2.37828C2.31476 2.49292 2.33613 2.6049 2.36017 2.68088C2.36151 2.68488 2.36284 2.68888 2.36418 2.69288C2.45902 2.92215 2.59259 3.1381 2.79563 3.39538L2.79696 3.39671C3.16563 3.84993 3.55433 4.20318 3.9831 4.47378C4.03787 4.50844 4.09397 4.53644 4.1474 4.5631C4.19549 4.58709 4.2409 4.60975 4.27964 4.63375C4.28498 4.63641 4.29032 4.64041 4.29567 4.64308C4.34108 4.66574 4.38383 4.6764 4.42791 4.6764C4.53877 4.6764 4.60823 4.60709 4.63094 4.58443L4.89276 4.32314C4.93818 4.27781 5.01031 4.22316 5.09446 4.22316C5.17728 4.22316 5.2454 4.27515 5.28681 4.32047C5.28814 4.3218 5.28814 4.3218 5.28948 4.32314L6.02548 5.05763C6.16306 5.1936 6.02681 5.47486 6.02681 5.47486Z" stroke="#323232" stroke-width="0.2" stroke-linecap="round" stroke-linejoin="round"/>
</svg>
