<svg width="22" height="23" viewBox="0 0 22 23" fill="none" xmlns="http://www.w3.org/2000/svg">
<path d="M10.9512 6.16675C7.8457 6.16675 5.34082 8.67163 5.34082 11.7771C5.34082 14.8826 7.8457 17.3874 10.9512 17.3874C14.0566 17.3874 16.5615 14.8826 16.5615 11.7771C16.5615 8.67163 14.0566 6.16675 10.9512 6.16675ZM10.9512 15.4246C8.94434 15.4246 7.30371 13.7888 7.30371 11.7771C7.30371 9.76538 8.93945 8.12964 10.9512 8.12964C12.9629 8.12964 14.5986 9.76538 14.5986 11.7771C14.5986 13.7888 12.958 15.4246 10.9512 15.4246ZM18.0996 5.93726C18.0996 6.66479 17.5137 7.24585 16.791 7.24585C16.0635 7.24585 15.4824 6.65991 15.4824 5.93726C15.4824 5.2146 16.0684 4.62866 16.791 4.62866C17.5137 4.62866 18.0996 5.2146 18.0996 5.93726ZM21.8154 7.26538C21.7324 5.51245 21.332 3.95972 20.0479 2.68042C18.7686 1.40112 17.2158 1.00073 15.4629 0.912842C13.6563 0.810303 8.24121 0.810303 6.43457 0.912842C4.68652 0.99585 3.13379 1.39624 1.84961 2.67554C0.56543 3.95483 0.169922 5.50757 0.0820312 7.2605C-0.0205078 9.06714 -0.0205078 14.4822 0.0820312 16.2888C0.165039 18.0417 0.56543 19.5945 1.84961 20.8738C3.13379 22.1531 4.68164 22.5535 6.43457 22.6414C8.24121 22.7439 13.6563 22.7439 15.4629 22.6414C17.2158 22.5583 18.7686 22.158 20.0479 20.8738C21.3271 19.5945 21.7275 18.0417 21.8154 16.2888C21.918 14.4822 21.918 9.07202 21.8154 7.26538ZM19.4814 18.2273C19.1006 19.1843 18.3633 19.9216 17.4014 20.3074C15.9609 20.8787 12.543 20.7468 10.9512 20.7468C9.35938 20.7468 5.93652 20.8738 4.50098 20.3074C3.54395 19.9265 2.80664 19.1892 2.4209 18.2273C1.84961 16.7869 1.98145 13.3689 1.98145 11.7771C1.98145 10.1853 1.85449 6.76245 2.4209 5.3269C2.80176 4.36987 3.53906 3.63257 4.50098 3.24683C5.94141 2.67554 9.35938 2.80737 10.9512 2.80737C12.543 2.80737 15.9658 2.68042 17.4014 3.24683C18.3584 3.62769 19.0957 4.36499 19.4814 5.3269C20.0527 6.76733 19.9209 10.1853 19.9209 11.7771C19.9209 13.3689 20.0527 16.7917 19.4814 18.2273Z" fill="#FFFCFC"/>
</svg>
