<svg width="33" height="33" viewBox="0 0 33 33" fill="none" xmlns="http://www.w3.org/2000/svg">
<path d="M21.4495 24.049C15.0156 24.0475 9.78012 18.6718 9.77869 12.0669C9.78155 10.393 11.1072 9.03033 12.7361 9.03033C12.9034 9.03033 13.0693 9.04501 13.2266 9.07438C13.5755 9.13311 13.9059 9.255 14.2119 9.43708C14.2562 9.46351 14.2863 9.50756 14.2934 9.55895L14.9727 13.9597C14.9813 14.0111 14.9656 14.0625 14.9327 14.1007C14.5566 14.528 14.0775 14.8349 13.5455 14.989L13.2895 15.0639L13.3868 15.3194C14.2648 17.6116 16.0496 19.4456 18.2833 20.3472L18.5322 20.447L18.6037 20.1827C18.7538 19.635 19.0527 19.1431 19.4689 18.7584C19.4989 18.7305 19.5389 18.7143 19.5804 18.7143C19.589 18.7143 19.599 18.7143 19.6076 18.7173L23.8921 19.4148C23.9436 19.4236 23.985 19.4529 24.0122 19.4985C24.1881 19.8127 24.3068 20.1534 24.3654 20.5102C24.3926 20.6702 24.4069 20.8376 24.4069 21.0138C24.4069 22.6863 23.0798 24.0475 21.4495 24.0505V24.049Z" fill="#FDFDFD"/>
<path d="M32.8586 15.0507C32.5111 11.0244 30.7149 7.29029 27.8004 4.53706C24.8688 1.76622 21.0634 0.24057 17.0849 0.24057C8.3529 0.24057 1.2483 7.53552 1.2483 16.5015C1.2483 19.5102 2.05629 22.4426 3.58647 24.9961L0.174316 32.7536L11.1029 31.5583C13.0035 32.3571 15.0156 32.7624 17.0849 32.7624C17.6298 32.7624 18.1875 32.733 18.7467 32.6743C19.24 32.62 19.7377 32.5407 20.2282 32.4394C27.5416 30.9225 32.8801 24.2575 32.9215 16.5881V16.5015C32.9215 16.0125 32.9001 15.525 32.8572 15.0522L32.8586 15.0507ZM11.5219 28.1531L5.47559 28.8139L7.28178 24.7068L6.9214 24.2091C6.89423 24.1723 6.86848 24.1356 6.83845 24.0945C5.27109 21.8728 4.44308 19.2474 4.44308 16.5C4.44308 9.34164 10.1147 3.51948 17.0849 3.51948C23.6161 3.51948 29.1504 8.75134 29.6839 15.4296C29.7125 15.7878 29.7268 16.1476 29.7268 16.5015C29.7268 16.6028 29.7253 16.7027 29.7225 16.8084C29.588 22.7965 25.5138 27.8815 19.8149 29.1766C19.3802 29.2765 18.934 29.3513 18.4892 29.4013C18.0273 29.4556 17.554 29.482 17.0835 29.482C15.4089 29.482 13.7815 29.1487 12.2427 28.4909C12.0725 28.4204 11.9052 28.3455 11.7479 28.2677L11.5191 28.1546L11.5219 28.1531Z" fill="#FDFDFD"/>
</svg>
